M48
;Layer_Color=9474304
;FILE_FORMAT=2:5
INCH,LZ
;TYPE=PLATED
T1F00S00C0.00800
T2F00S00C0.01000
T3F00S00C0.01200
T4F00S00C0.01968
T6F00S00C0.03150
T7F00S00C0.03543
%
T01
X0046063Y-0071555
X-0050959Y-00708
X-0050992Y-0066192
X-0057459Y-00495
X-00576Y-00455
X-00421Y-0028541
X-00389Y-00259
X-003937Y-0020416
X-0044623Y-0015918
X-005858Y-00082
X-00635Y-000935
X-0065945Y-00074
X-0063386Y-00006
X-0063681Y0005315
X-0064921Y00198
X-006688Y00216
X-0064961Y00278
X-00613Y0027859
X-0060138Y0031559
X-00558Y00272
X-00509Y00301
X-0050689Y003563
X-0063976Y003937
Y00446
X-0059055
X-00386Y00436
X-0036122Y0026083
X-00365Y0003472
X-00314Y00024
X-0034132Y-0034941
X-0029841Y-00264
X-00242Y-00229
X-00223Y-00175
X-002Y-00195
X-0016732Y-0018236
X-00181Y-00153
X-00158Y-00109
X-0017323Y-0005413
X-00144Y0005
X-0012331Y000689
X-0017361Y0008839
X-0015259Y0012781
X-0022392Y0011849
X-0017592Y0018708
X-00128Y00187
X-0008839Y00193
X-00076Y00286
X-000315Y0026969
X0001Y00174
X000489Y00165
X000689Y00146
X00089Y00124
X001378Y0008858
X00188Y00069
X00178Y0003
X0023143Y0003016
X0022Y00009
X00228Y-00049
X0023Y-0012541
X0024353Y-001565
X003146Y-00144
X003398Y-0016769
X00386Y-0013507
X0036614Y-0009154
X0043535Y-0011035
X0041351Y-00222
X0048459Y-00268
X0047409Y-0035289
Y-0041194
X0041299Y-0038131
X0009519Y-00383
X00096Y-00284
X000675Y-0031
X0001276Y-00288
X-00015Y-00312
X-00039Y-00351
X-0012Y-00374
X-00098Y-0043
X-00205Y-00312
X-00089Y-00196
X-00069Y-0015985
X-0003Y-0016
X-0001Y-00179
X-0010827Y-001378
X0015846Y-0015748
X0016538Y00139
X00133Y00196
X0007451Y00209
X00042Y0034307
X0020539Y0025875
X0032185Y00238
X00335Y00301
X0040945Y0025984
X0042747Y0033584
X0045985Y0036045
X00495Y00408
X00399Y0043307
X00277Y0037732
X00447Y00154
X0045867Y0009408
Y0004608
X00453Y0001074
X00406Y00095
X0037271Y00075
X00344Y-00023
T02
X-0020054Y0042274
Y0045374
Y0048474
X-0016954
Y0045374
Y0042274
T03
X-00585Y-0002892
X-0048018Y0007
X-00459Y00054
X-00458Y0026341
X-0043046Y00259
X-00417Y0022639
X-0039212Y00214
T04
X-0046614Y-0020374
Y-000128
T06
X0043623Y-0065892
Y-00592
X-0061156Y-0059553
Y-0066246
Y0041353
Y0048046
X0043623Y0048447
Y0041754
Y-0007654
Y-0014346
T07
X-00623Y00149
X-00523
M30
