G04*
G04 #@! TF.GenerationSoftware,Altium Limited,Altium Designer,19.0.4 (130)*
G04*
G04 Layer_Color=16711935*
%FSLAX25Y25*%
%MOIN*%
G70*
G01*
G75*
%ADD16C,0.01000*%
%ADD82C,0.00100*%
%ADD110C,0.00300*%
D16*
X54197Y74803D02*
G03*
X50197Y78740I-3937J0D01*
G01*
Y-95472D02*
G03*
X54134Y-91535I0J3937D01*
G01*
X-74817D02*
G03*
X-70866Y-95472I3937J0D01*
G01*
X-70866Y78734D02*
G03*
X-74803Y74803I-6J-3931D01*
G01*
X-70860Y78740D02*
X50260D01*
X54134Y-91535D02*
Y74867D01*
X-70866Y-95472D02*
X50197D01*
X-74803Y-91535D02*
Y74797D01*
D82*
X-19704Y53543D02*
G03*
X-17304Y53543I1200J0D01*
G01*
X-12303Y37205D02*
Y53543D01*
X-24705D02*
X-12303D01*
X-24705Y37205D02*
Y53543D01*
Y37205D02*
X-12303D01*
X-24705Y50689D02*
Y51870D01*
Y50689D02*
Y51870D01*
Y48720D02*
Y49902D01*
Y48720D02*
Y49902D01*
Y46752D02*
Y47933D01*
Y46752D02*
Y47933D01*
Y44783D02*
Y45965D01*
Y44783D02*
Y45965D01*
Y42815D02*
Y43996D01*
Y42815D02*
Y43996D01*
Y40846D02*
Y42028D01*
Y40846D02*
Y42028D01*
Y38878D02*
Y40059D01*
Y38878D02*
Y40059D01*
X-12303Y38878D02*
Y40059D01*
Y38878D02*
Y40059D01*
Y40846D02*
Y42028D01*
Y40846D02*
Y42028D01*
Y42815D02*
Y43996D01*
Y42815D02*
Y43996D01*
Y44783D02*
Y45965D01*
Y44783D02*
Y45965D01*
Y46752D02*
Y47933D01*
Y46752D02*
Y47933D01*
Y48720D02*
Y49902D01*
Y48720D02*
Y49902D01*
Y50689D02*
Y51870D01*
Y50689D02*
Y51870D01*
D110*
X-16198Y53898D02*
Y52113D01*
X-15454Y53452D02*
X-16942Y52559D01*
Y53452D02*
X-15454Y52559D01*
M02*
