G04*
G04 #@! TF.GenerationSoftware,Altium Limited,Altium Designer,19.0.4 (130)*
G04*
G04 Layer_Color=16711935*
%FSLAX25Y25*%
%MOIN*%
G70*
G01*
G75*
%ADD10C,0.00394*%
%ADD12C,0.02400*%
%ADD19C,0.00500*%
D10*
X-25032Y-8941D02*
G03*
X-25032Y-8941I-1969J0D01*
G01*
X-45807Y-35482D02*
G03*
X-45807Y-35482I-787J0D01*
G01*
X-9055Y10236D02*
G03*
X-9055Y10236I-1181J0D01*
G01*
X-38994Y23441D02*
Y28559D01*
X-50806Y23441D02*
Y28559D01*
Y23441D02*
X-38994D01*
X-50806Y28559D02*
X-38994D01*
X-51306Y23641D02*
X-39494D01*
X-51306Y28759D02*
X-39494D01*
X-51306Y23641D02*
Y28759D01*
X-39494Y23641D02*
Y28759D01*
X-50906Y42241D02*
Y47359D01*
X-39094Y42241D02*
Y47359D01*
X-50906D02*
X-39094D01*
X-50906Y42241D02*
X-39094D01*
X-43843Y-12027D02*
X-24157D01*
X-43843Y2146D02*
X-24157D01*
Y-12027D02*
Y2146D01*
X-43843Y-12027D02*
Y2146D01*
X-60374Y-48474D02*
X-44626D01*
X-60374D02*
Y-32726D01*
X-44626Y-48474D02*
Y-32726D01*
X-60374D02*
X-44626D01*
X-37359Y-73106D02*
Y-61294D01*
X-32241Y-73106D02*
Y-61294D01*
X-37359Y-73106D02*
X-32241D01*
X-37359Y-61294D02*
X-32241D01*
X-13780Y-13780D02*
X13780Y13780D01*
X-13780Y-13780D02*
X13780Y13780D01*
X-13780Y-13780D02*
X13780D01*
X-13780Y13780D02*
X13780D01*
X39141Y13406D02*
X44259D01*
X39141Y1594D02*
X44259D01*
X39141D02*
Y13406D01*
X44259Y1594D02*
Y13406D01*
X37641Y27806D02*
X42759D01*
X37641Y15994D02*
X42759D01*
X37641D02*
Y27806D01*
X42759Y15994D02*
Y27806D01*
D12*
X45145Y-44147D02*
G03*
X45145Y-44147I-492J0D01*
G01*
D19*
X37763Y-35289D02*
G03*
X35794Y-37257I0J-1969D01*
G01*
Y-45131D02*
G03*
X37763Y-47100I1969J0D01*
G01*
X45637D02*
G03*
X47605Y-45131I0J1969D01*
G01*
Y-37257D02*
G03*
X45637Y-35289I-1969J0D01*
G01*
X34613Y-33714D02*
X48787D01*
X34613Y-48675D02*
Y-33714D01*
Y-48675D02*
X48787D01*
Y-33714D01*
X37763Y-35289D02*
X45637D01*
X35794Y-45131D02*
Y-37257D01*
X37763Y-47100D02*
X45637D01*
X47605Y-45131D02*
Y-37257D01*
M02*
