G04*
G04 #@! TF.GenerationSoftware,Altium Limited,Altium Designer,19.0.4 (130)*
G04*
G04 Layer_Color=32768*
%FSLAX25Y25*%
%MOIN*%
G70*
G01*
G75*
%ADD10C,0.00394*%
%ADD18C,0.00158*%
%ADD82C,0.00100*%
%ADD111C,0.00197*%
D10*
X-38601Y20361D02*
Y33000D01*
X-51199Y20361D02*
Y33000D01*
Y20361D02*
X-38601D01*
X-51199Y33000D02*
X-38601D01*
X-51699Y19200D02*
X-39101D01*
X-51699Y31661D02*
X-39101D01*
X-51699Y19200D02*
Y31661D01*
X-39101Y19200D02*
Y31661D01*
X-51299Y37300D02*
Y52300D01*
X-38701Y37300D02*
Y52300D01*
X-51299D02*
X-38701D01*
X-51299Y37300D02*
X-38701D01*
X-44236Y-18941D02*
X-23764D01*
X-44236Y9059D02*
X-23764D01*
Y-18941D02*
Y9059D01*
X-44236Y-18941D02*
Y9059D01*
X-63130Y-29970D02*
X-41870D01*
Y-51230D02*
Y-29970D01*
X-63130Y-51230D02*
X-41870D01*
X-63130D02*
Y-29970D01*
X-42300Y-73499D02*
Y-60901D01*
X-27300Y-73499D02*
Y-60901D01*
X-42300Y-73499D02*
X-27300D01*
X-42300Y-60901D02*
X-27300D01*
X-16142Y16142D02*
X16142D01*
X-16142Y-16142D02*
X16142Y16142D01*
X-16142Y-16142D02*
X16142Y16142D01*
X-16142Y-16142D02*
X16142D01*
X34700Y13799D02*
X48700D01*
X34700Y1201D02*
X48700D01*
X34700D02*
Y13799D01*
X48700Y1201D02*
Y13799D01*
X33200Y28199D02*
X47200D01*
X33200Y15601D02*
X47200D01*
X33200D02*
Y28199D01*
X47200Y15601D02*
Y28199D01*
D18*
X25907Y20900D02*
G03*
X25907Y20900I-707J0D01*
G01*
X28894Y6125D02*
G03*
X28894Y6125I-707J0D01*
G01*
X24200Y20900D02*
X26200D01*
X25200Y19900D02*
Y21900D01*
X27187Y6125D02*
X29187D01*
X28187Y5125D02*
Y7125D01*
D82*
X-63446Y-847D02*
G03*
X-63446Y-847I-500J0D01*
G01*
X37059Y30100D02*
G03*
X37059Y30100I-500J0D01*
G01*
X-57000Y22600D02*
G03*
X-57000Y22600I-500J0D01*
G01*
X-34900Y17800D02*
G03*
X-34900Y17800I-500J0D01*
G01*
X-26700Y14900D02*
G03*
X-26700Y14900I-500J0D01*
G01*
X32341Y-47000D02*
G03*
X32341Y-47000I-500J0D01*
G01*
X32441Y-41300D02*
G03*
X32441Y-41300I-500J0D01*
G01*
X44850Y-35289D02*
G03*
X44850Y-35289I-500J0D01*
G01*
Y-41194D02*
G03*
X44850Y-41194I-500J0D01*
G01*
X-60800Y24800D02*
G03*
X-60800Y24800I-500J0D01*
G01*
X-55406Y-16149D02*
G03*
X-55406Y-16149I-500J0D01*
G01*
X-54974Y39187D02*
G03*
X-54974Y39187I-500J0D01*
G01*
X-54945Y50141D02*
G03*
X-54945Y50141I-500J0D01*
G01*
X36200Y7600D02*
G03*
X36200Y7600I-500J0D01*
G01*
X40300Y18600D02*
G03*
X40300Y18600I-500J0D01*
G01*
X44100Y4600D02*
G03*
X44100Y4600I-500J0D01*
G01*
Y9400D02*
G03*
X44100Y9400I-500J0D01*
G01*
X-35228Y44087D02*
G03*
X-35228Y44087I-500J0D01*
G01*
X-30328Y44067D02*
G03*
X-30328Y44067I-500J0D01*
G01*
X-4815Y51870D02*
G03*
X-4815Y51870I-500J0D01*
G01*
X-1823Y44000D02*
G03*
X-1823Y44000I-500J0D01*
G01*
X-1800Y33100D02*
G03*
X-1800Y33100I-500J0D01*
G01*
X-32400Y-21600D02*
G03*
X-32400Y-21600I-500J0D01*
G01*
X34000Y37959D02*
G03*
X34000Y37959I-500J0D01*
G01*
X-21900Y14900D02*
G03*
X-21900Y14900I-500J0D01*
G01*
X-63600Y-22500D02*
G03*
X-63600Y-22500I-500J0D01*
G01*
X-50000Y-53841D02*
G03*
X-50000Y-53841I-500J0D01*
G01*
X-32400Y-26400D02*
G03*
X-32400Y-26400I-500J0D01*
G01*
X23500Y-15600D02*
G03*
X23500Y-15600I-500J0D01*
G01*
X-6800Y28500D02*
G03*
X-6800Y28500I-500J0D01*
G01*
X-14700Y18700D02*
G03*
X-14700Y18700I-500J0D01*
G01*
X-55406Y-9548D02*
G03*
X-55406Y-9548I-500J0D01*
G01*
Y-2946D02*
G03*
X-55406Y-2946I-500J0D01*
G01*
X-8400Y-19500D02*
G03*
X-8400Y-19500I-500J0D01*
G01*
X-47400Y-70800D02*
G03*
X-47400Y-70800I-500J0D01*
G01*
Y-66000D02*
G03*
X-47400Y-66000I-500J0D01*
G01*
X28293Y800D02*
G03*
X28293Y800I-500J0D01*
G01*
Y11900D02*
G03*
X28293Y11900I-500J0D01*
G01*
X28300Y15500D02*
G03*
X28300Y15500I-500J0D01*
G01*
Y26300D02*
G03*
X28300Y26300I-500J0D01*
G01*
X-29400Y-55900D02*
G03*
X-29400Y-55900I-500J0D01*
G01*
X-2200Y52200D02*
G03*
X-2200Y52200I-500J0D01*
G01*
X24400D02*
G03*
X24400Y52200I-500J0D01*
G01*
X45900Y-26800D02*
G03*
X45900Y-26800I-500J0D01*
G01*
X-43900Y53100D02*
G03*
X-43900Y53100I-500J0D01*
G01*
X-45900Y-31600D02*
G03*
X-45900Y-31600I-500J0D01*
G01*
X-41600D02*
G03*
X-41600Y-31600I-500J0D01*
G01*
X-53900Y-49500D02*
G03*
X-53900Y-49500I-500J0D01*
G01*
X-63946Y-1634D02*
Y-59D01*
X-64734Y-847D02*
X-63159D01*
X36559Y29313D02*
Y30887D01*
X35772Y30100D02*
X37346D01*
X-57500Y21813D02*
Y23387D01*
X-58287Y22600D02*
X-56713D01*
X-36187Y17800D02*
X-34613D01*
X-35400Y17013D02*
Y18587D01*
X-27200Y14113D02*
Y15687D01*
X-27987Y14900D02*
X-26413D01*
X31054Y-47000D02*
X32628D01*
X31841Y-47787D02*
Y-46213D01*
X31941Y-42087D02*
Y-40513D01*
X31154Y-41300D02*
X32728D01*
X43562Y-35289D02*
X45137D01*
X44350Y-36076D02*
Y-34501D01*
Y-41982D02*
Y-40407D01*
X43562Y-41194D02*
X45137D01*
X-61300Y24013D02*
Y25587D01*
X-62087Y24800D02*
X-60513D01*
X-56693Y-16149D02*
X-55118D01*
X-55906Y-16936D02*
Y-15361D01*
X-55474Y38400D02*
Y39974D01*
X-56261Y39187D02*
X-54687D01*
X-55445Y49354D02*
Y50928D01*
X-56232Y50141D02*
X-54658D01*
X35700Y6813D02*
Y8387D01*
X34913Y7600D02*
X36487D01*
X39800Y17813D02*
Y19387D01*
X39013Y18600D02*
X40587D01*
X42813Y4600D02*
X44387D01*
X43600Y3813D02*
Y5387D01*
X42813Y9400D02*
X44387D01*
X43600Y8613D02*
Y10187D01*
X-35728Y43299D02*
Y44874D01*
X-36516Y44087D02*
X-34941D01*
X-30828Y43279D02*
Y44854D01*
X-31616Y44067D02*
X-30041D01*
X-6102Y51870D02*
X-4528D01*
X-5315Y51083D02*
Y52658D01*
X-2323Y43213D02*
Y44787D01*
X-3110Y44000D02*
X-1535D01*
X-2300Y32313D02*
Y33887D01*
X-3087Y33100D02*
X-1513D01*
X-32900Y-22387D02*
Y-20813D01*
X-33687Y-21600D02*
X-32113D01*
X33500Y37172D02*
Y38746D01*
X32713Y37959D02*
X34287D01*
X-22400Y14113D02*
Y15687D01*
X-23187Y14900D02*
X-21613D01*
X-64100Y-23287D02*
Y-21713D01*
X-64887Y-22500D02*
X-63313D01*
X-51287Y-53841D02*
X-49713D01*
X-50500Y-54628D02*
Y-53054D01*
X-33687Y-26400D02*
X-32113D01*
X-32900Y-27187D02*
Y-25613D01*
X23000Y-16387D02*
Y-14813D01*
X22213Y-15600D02*
X23787D01*
X-7300Y27713D02*
Y29287D01*
X-8087Y28500D02*
X-6513D01*
X-15987Y18700D02*
X-14413D01*
X-15200Y17913D02*
Y19487D01*
X-56693Y-9548D02*
X-55118D01*
X-55906Y-10335D02*
Y-8760D01*
X-56693Y-2946D02*
X-55118D01*
X-55906Y-3734D02*
Y-2159D01*
X-9687Y-19500D02*
X-8113D01*
X-8900Y-20287D02*
Y-18713D01*
X-48687Y-70800D02*
X-47113D01*
X-47900Y-71587D02*
Y-70013D01*
X-48687Y-66000D02*
X-47113D01*
X-47900Y-66787D02*
Y-65213D01*
X27793Y13D02*
Y1587D01*
X27006Y800D02*
X28580D01*
X27793Y11113D02*
Y12687D01*
X27006Y11900D02*
X28580D01*
X27800Y14713D02*
Y16287D01*
X27013Y15500D02*
X28587D01*
X27800Y25513D02*
Y27087D01*
X27013Y26300D02*
X28587D01*
X-29900Y-56687D02*
Y-55113D01*
X-30687Y-55900D02*
X-29113D01*
X-2700Y51413D02*
Y52987D01*
X-3487Y52200D02*
X-1913D01*
X23900Y51413D02*
Y52987D01*
X23113Y52200D02*
X24687D01*
X45400Y-27587D02*
Y-26013D01*
X44613Y-26800D02*
X46187D01*
X-44400Y52313D02*
Y53887D01*
X-45187Y53100D02*
X-43613D01*
X-47187Y-31600D02*
X-45613D01*
X-46400Y-32387D02*
Y-30812D01*
X-42887Y-31600D02*
X-41313D01*
X-42100Y-32387D02*
Y-30812D01*
X-54400Y-50287D02*
Y-48713D01*
X-55187Y-49500D02*
X-53613D01*
D111*
X-43522Y26000D02*
G03*
X-43522Y26000I-1378J0D01*
G01*
X-44022Y26200D02*
G03*
X-44022Y26200I-1378J0D01*
G01*
X-54422Y27500D02*
G03*
X-54422Y27500I-1378J0D01*
G01*
X-36622Y12400D02*
G03*
X-36622Y12400I-1378J0D01*
G01*
X-48022Y41300D02*
G03*
X-48022Y41300I-1378J0D01*
G01*
X-43622Y44800D02*
G03*
X-43622Y44800I-1378J0D01*
G01*
X-41022Y41300D02*
G03*
X-41022Y41300I-1378J0D01*
G01*
X-20669Y29035D02*
G03*
X-20669Y29035I-1378J0D01*
G01*
X21978Y41000D02*
G03*
X21978Y41000I-1378J0D01*
G01*
X13892D02*
G03*
X13892Y41000I-1378J0D01*
G01*
X5578D02*
G03*
X5578Y41000I-1378J0D01*
G01*
X29078Y43244D02*
G03*
X29078Y43244I-1378J0D01*
G01*
X-32622Y-4941D02*
G03*
X-32622Y-4941I-1378J0D01*
G01*
X39978Y-20200D02*
G03*
X39978Y-20200I-1378J0D01*
G01*
X-51122Y-40600D02*
G03*
X-51122Y-40600I-1378J0D01*
G01*
X30778Y-13600D02*
G03*
X30778Y-13600I-1378J0D01*
G01*
X-33422Y-67200D02*
G03*
X-33422Y-67200I-1378J0D01*
G01*
X1378Y0D02*
G03*
X1378Y0I-1378J0D01*
G01*
X-30422Y52600D02*
G03*
X-30422Y52600I-1378J0D01*
G01*
X-14222D02*
G03*
X-14222Y52600I-1378J0D01*
G01*
X12378D02*
G03*
X12378Y52600I-1378J0D01*
G01*
X-55905Y-10827D02*
G03*
X-55905Y-10827I-1378J0D01*
G01*
X43078Y7500D02*
G03*
X43078Y7500I-1378J0D01*
G01*
X41578Y21900D02*
G03*
X41578Y21900I-1378J0D01*
G01*
X-44900Y24031D02*
Y27968D01*
X-46868Y26000D02*
X-42931D01*
X-47369Y26200D02*
X-43432D01*
X-45400Y24232D02*
Y28169D01*
X-57768Y27500D02*
X-53831D01*
X-55800Y25532D02*
Y29469D01*
X-39968Y12400D02*
X-36031D01*
X-38000Y10432D02*
Y14369D01*
X-49400Y39332D02*
Y43269D01*
X-51368Y41300D02*
X-47431D01*
X-45000Y42832D02*
Y46769D01*
X-46968Y44800D02*
X-43031D01*
X-42400Y39332D02*
Y43269D01*
X-44368Y41300D02*
X-40431D01*
X-22047Y27067D02*
Y31004D01*
X-24016Y29035D02*
X-20079D01*
X18632Y41000D02*
X22569D01*
X20600Y39032D02*
Y42969D01*
X12514Y39032D02*
Y42969D01*
X10546Y41000D02*
X14483D01*
X2232D02*
X6169D01*
X4200Y39032D02*
Y42969D01*
X25732Y43244D02*
X29669D01*
X27700Y41275D02*
Y45212D01*
X-35968Y-4941D02*
X-32031D01*
X-34000Y-6909D02*
Y-2972D01*
X36632Y-20200D02*
X40569D01*
X38600Y-22169D02*
Y-18232D01*
X-52500Y-42568D02*
Y-38631D01*
X-54468Y-40600D02*
X-50531D01*
X27432Y-13600D02*
X31369D01*
X29400Y-15568D02*
Y-11631D01*
X-34800Y-69168D02*
Y-65231D01*
X-36768Y-67200D02*
X-32831D01*
X0Y-1968D02*
Y1969D01*
X-1968Y0D02*
X1969D01*
X-33768Y52600D02*
X-29831D01*
X-31800Y50632D02*
Y54569D01*
X-15600Y50632D02*
Y54569D01*
X-17568Y52600D02*
X-13631D01*
X9032D02*
X12969D01*
X11000Y50632D02*
Y54569D01*
X-59252Y-10827D02*
X-55315D01*
X-57283Y-12795D02*
Y-8858D01*
X39732Y7500D02*
X43669D01*
X41700Y5532D02*
Y9469D01*
X38232Y21900D02*
X42169D01*
X40200Y19932D02*
Y23869D01*
M02*
