G04*
G04 #@! TF.GenerationSoftware,Altium Limited,Altium Designer,19.0.4 (130)*
G04*
G04 Layer_Color=32896*
%FSLAX25Y25*%
%MOIN*%
G70*
G01*
G75*
%ADD11C,0.00984*%
%ADD13C,0.00787*%
%ADD14C,0.00700*%
%ADD15C,0.00600*%
%ADD16C,0.01000*%
%ADD17C,0.00800*%
%ADD18C,0.00158*%
%ADD106C,0.00591*%
%ADD107C,0.01181*%
%ADD108C,0.00315*%
%ADD109C,0.00799*%
%ADD110C,0.00300*%
D11*
X-50707Y32000D02*
G03*
X-50707Y32000I-492J0D01*
G01*
X-38209Y38300D02*
G03*
X-38209Y38300I-492J0D01*
G01*
X-42264Y-33710D02*
G03*
X-42264Y-33710I-394J0D01*
G01*
X-40808Y-73499D02*
G03*
X-40808Y-73499I-492J0D01*
G01*
D13*
X-42144Y23244D02*
X-38994D01*
Y27181D01*
X-50806Y23244D02*
X-47656D01*
X-50806D02*
Y27181D01*
X-50900Y47556D02*
X-47750D01*
X-50900Y44013D02*
Y47556D01*
X-42239D02*
X-39089D01*
Y44013D02*
Y47556D01*
X-67300Y9900D02*
Y19900D01*
Y9900D02*
X-47300D01*
Y19900D01*
X-67300D02*
X-47300D01*
X23300Y30200D02*
X24600Y31500D01*
X17900Y30200D02*
X23300D01*
X24600Y31500D02*
Y38000D01*
X16600Y31500D02*
X17900Y30200D01*
X16600Y31500D02*
Y38000D01*
X24600Y44500D02*
Y51500D01*
X16600D02*
X24600D01*
X16600Y44500D02*
Y51500D01*
X8514Y44500D02*
Y51500D01*
X16514D01*
Y44500D02*
Y51500D01*
X8514Y31500D02*
Y38000D01*
Y31500D02*
X9814Y30200D01*
X16514Y31500D02*
Y38000D01*
X9814Y30200D02*
X15214D01*
X16514Y31500D01*
X6900Y30200D02*
X8200Y31500D01*
X1500Y30200D02*
X6900D01*
X8200Y31500D02*
Y38000D01*
X200Y31500D02*
X1500Y30200D01*
X200Y31500D02*
Y38000D01*
X8200Y44500D02*
Y51500D01*
X200D02*
X8200D01*
X200Y44500D02*
Y51500D01*
X-43843Y-10941D02*
X-24157D01*
X-43843Y1059D02*
X-24157D01*
X-43843Y-10941D02*
Y1059D01*
X34600Y-10700D02*
X35900Y-9400D01*
X41300D01*
X34600Y-17200D02*
Y-10700D01*
X41300Y-9400D02*
X42600Y-10700D01*
Y-17200D02*
Y-10700D01*
X34600Y-30700D02*
Y-23700D01*
Y-30700D02*
X42600D01*
Y-23700D01*
X25400Y-4100D02*
X26700Y-2800D01*
X32100D01*
X25400Y-10600D02*
Y-4100D01*
X32100Y-2800D02*
X33400Y-4100D01*
Y-10600D02*
Y-4100D01*
X25400Y-24100D02*
Y-17100D01*
Y-24100D02*
X33400D01*
Y-17100D01*
X23387Y10025D02*
X26687D01*
X23387Y6625D02*
Y9925D01*
X-35587Y-73111D02*
X-32044D01*
Y-69961D01*
X-35587Y-61300D02*
X-32044D01*
Y-64450D02*
Y-61300D01*
D14*
X-46300Y9400D02*
Y15400D01*
X-41100D01*
X-46300Y9400D02*
X-41100D01*
X-31500D02*
X-29700Y11200D01*
X-34600Y9400D02*
X-31500D01*
X-34600Y15400D02*
X-31400D01*
X-29700Y13700D01*
Y11200D02*
Y13700D01*
X26500Y34944D02*
X29000D01*
X30700Y36644D01*
Y39844D01*
X24700Y36744D02*
Y39844D01*
Y36744D02*
X26500Y34944D01*
X24700Y46344D02*
Y51544D01*
X30700Y46344D02*
Y51544D01*
X24700D02*
X30700D01*
X-60791Y-32309D02*
X-58799D01*
X-60791Y-34301D02*
Y-32309D01*
Y-48891D02*
Y-46899D01*
Y-48891D02*
X-58799D01*
X-46201D02*
X-44209D01*
Y-46899D01*
X-46201Y-32309D02*
X-44209D01*
Y-34301D02*
Y-32309D01*
X-14173Y-14173D02*
X-12205D01*
X-14173D02*
Y-12205D01*
X12205Y-14173D02*
X14173Y-12205D01*
X12205Y-14173D02*
X14173D01*
X12205Y14173D02*
X14173D01*
Y12205D02*
Y14173D01*
X-14173D02*
X-12205D01*
X-14173Y12205D02*
X-12205Y14173D01*
D15*
X-14134Y53543D02*
X-12303D01*
X-24705D02*
X-22874D01*
X-14134Y37205D02*
X-12303D01*
X-24705D02*
X-22874D01*
X36259Y30100D02*
X36559D01*
X36859D01*
X36559Y29200D02*
Y31000D01*
X-57800Y22600D02*
X-57500D01*
X-57200D01*
X-57500Y21700D02*
Y23500D01*
X-35400Y16900D02*
Y18700D01*
Y17800D02*
X-35100D01*
X-35700D02*
X-35400D01*
X-38900Y10700D02*
Y14200D01*
X-37300Y12500D01*
Y10400D02*
Y14400D01*
X-38900Y10700D02*
X-37300Y12300D01*
X44350Y-36189D02*
Y-34389D01*
X44050Y-35289D02*
X44350D01*
X44650D01*
X44350Y-41194D02*
X44650D01*
X44050D02*
X44350D01*
Y-42094D02*
Y-40294D01*
X-36628Y44087D02*
X-34828D01*
X-35728Y43787D02*
Y44087D01*
Y44387D01*
X-31728Y44067D02*
X-29928D01*
X-30828Y43767D02*
Y44067D01*
Y44367D01*
X-5315Y50970D02*
Y52770D01*
Y51870D02*
X-5015D01*
X-5615D02*
X-5315D01*
X26000Y44144D02*
X27600Y42544D01*
X25700D02*
X29700D01*
X27800D02*
X29500Y44144D01*
X26000D02*
X29500D01*
X-23300Y14900D02*
X-21500D01*
X-22400D02*
Y15200D01*
Y14600D02*
Y14900D01*
X-65000Y-22500D02*
X-63200D01*
X-64100Y-22800D02*
Y-22500D01*
Y-22200D01*
X-50500Y-54741D02*
Y-52941D01*
Y-53841D02*
X-50200D01*
X-50800D02*
X-50500D01*
X-32900Y-27300D02*
Y-25500D01*
X-33200Y-26400D02*
X-32900D01*
X-32600D01*
X22100Y-15600D02*
X23900D01*
X23000Y-15900D02*
Y-15600D01*
Y-15300D01*
X-8200Y28500D02*
X-6400D01*
X-7300Y28200D02*
Y28500D01*
Y28800D01*
X-15200Y18100D02*
Y19300D01*
X-10700Y16900D02*
Y20500D01*
X-14000D02*
X-10700D01*
X-14000Y16900D02*
X-10700D01*
X-19700Y20500D02*
X-16400D01*
X-19700Y16900D02*
X-16400D01*
X-19700D02*
Y20500D01*
X-55906Y-10447D02*
Y-8647D01*
X-56206Y-9548D02*
X-55906D01*
X-55606D01*
X-8900Y-20400D02*
Y-18600D01*
X-9200Y-19500D02*
X-8900D01*
X-8600D01*
X23293Y-1000D02*
Y2600D01*
Y-1000D02*
X26593D01*
X23293Y2600D02*
X26593D01*
X28993Y-1000D02*
X32293D01*
X28993Y2600D02*
X32293D01*
Y-1000D02*
Y2600D01*
X27793Y200D02*
Y1400D01*
X23293Y10100D02*
Y13700D01*
Y10100D02*
X26593D01*
X23293Y13700D02*
X26593D01*
X28993Y10100D02*
X32293D01*
X28993Y13700D02*
X32293D01*
Y10100D02*
Y13700D01*
X27793Y11300D02*
Y12500D01*
X23300Y13700D02*
Y17300D01*
Y13700D02*
X26600D01*
X23300Y17300D02*
X26600D01*
X29000Y13700D02*
X32300D01*
X29000Y17300D02*
X32300D01*
Y13700D02*
Y17300D01*
X27800Y14900D02*
Y16100D01*
X23300Y24500D02*
Y28100D01*
Y24500D02*
X26600D01*
X23300Y28100D02*
X26600D01*
X29000Y24500D02*
X32300D01*
X29000Y28100D02*
X32300D01*
Y24500D02*
Y28100D01*
X27800Y25700D02*
Y26900D01*
D16*
X-38100Y11900D02*
X-37900Y12500D01*
X-38600Y13100D02*
X-37900Y12500D01*
X-38600Y13100D02*
X-38500Y11400D01*
X-17047Y23035D02*
X-10547D01*
Y35035D01*
X-17047D02*
X-10547D01*
X-33547D02*
X-27047D01*
X-33547Y23035D02*
Y35035D01*
Y23035D02*
X-27047D01*
X-24047Y35035D02*
X-20047D01*
X-24047Y23035D02*
X-20047D01*
X26700Y43744D02*
X28400Y43844D01*
X27800Y43144D02*
X28400Y43844D01*
X27200Y43344D02*
X27800Y43144D01*
D17*
X-26158Y-4941D02*
G03*
X-24158Y-6941I2000J0D01*
G01*
X-24158Y-2941D02*
G03*
X-26158Y-4941I0J-2000D01*
G01*
X-66347Y-6329D02*
X-61546D01*
X-66347D02*
Y753D01*
X-61546Y-6329D02*
Y654D01*
X-66347D02*
Y4636D01*
X-61546Y654D02*
Y4636D01*
X-66347D02*
X-61546D01*
X42041Y27700D02*
Y32500D01*
X38059Y27700D02*
X42041D01*
X38059Y32500D02*
X42041D01*
X31077Y27700D02*
X35059D01*
X31077Y32500D02*
X35059D01*
X31077Y27700D02*
Y32500D01*
X-52018Y20200D02*
Y25000D01*
X-56000Y20200D02*
X-52018D01*
X-56000Y25000D02*
X-52018D01*
X-62982Y20200D02*
X-59000D01*
X-62982Y25000D02*
X-59000D01*
X-62982Y20200D02*
Y25000D01*
X-40882Y15400D02*
Y20200D01*
X-36900D01*
X-40882Y15400D02*
X-36900D01*
X-33900Y20200D02*
X-29918D01*
X-33900Y15400D02*
X-29918D01*
Y20200D01*
X-29600Y20382D02*
X-24800D01*
Y13300D02*
Y20382D01*
X-29600Y13400D02*
Y20382D01*
X-24800Y9418D02*
Y13400D01*
X-29600Y9418D02*
Y13400D01*
Y9418D02*
X-24800D01*
X26359Y-49400D02*
Y-44600D01*
X33441D01*
X26359Y-49400D02*
X33341D01*
Y-44600D02*
X37323D01*
X33341Y-49400D02*
X37323D01*
Y-44600D01*
X37423Y-43700D02*
Y-38900D01*
X33441Y-43700D02*
X37423D01*
X33441Y-38900D02*
X37423D01*
X26459Y-43700D02*
X33441D01*
X26459Y-38900D02*
X33541D01*
X26459Y-43700D02*
Y-38900D01*
X49832Y-37689D02*
Y-32889D01*
X45850Y-37689D02*
X49832D01*
X45850Y-32889D02*
X49832D01*
X38867Y-37689D02*
X42850D01*
X38867Y-32889D02*
X42850D01*
X38867Y-37689D02*
Y-32889D01*
Y-43594D02*
Y-38794D01*
X42850D01*
X38867Y-43594D02*
X42850D01*
X45850Y-38794D02*
X49832D01*
X45850Y-43594D02*
X49832D01*
Y-38794D01*
X-61388Y-18549D02*
Y-13748D01*
X-54306D01*
X-61388Y-18549D02*
X-54406D01*
Y-13748D02*
X-50423D01*
X-54406Y-18549D02*
X-50423D01*
Y-13748D01*
X-57874Y33705D02*
X-53074D01*
X-57874D02*
Y40787D01*
X-53074Y33705D02*
Y40687D01*
X-57874D02*
Y44669D01*
X-53074Y40687D02*
Y44669D01*
X-57874D02*
X-53074D01*
X-57845Y55623D02*
X-53045D01*
Y48541D02*
Y55623D01*
X-57845Y48641D02*
Y55623D01*
X-53045Y44659D02*
Y48641D01*
X-57845Y44659D02*
Y48641D01*
Y44659D02*
X-53045D01*
X33300Y2118D02*
X38100D01*
X33300D02*
Y9200D01*
X38100Y2118D02*
Y9100D01*
X33300D02*
Y13082D01*
X38100Y9100D02*
Y13082D01*
X33300D02*
X38100D01*
X37400Y24082D02*
X42200D01*
Y17000D02*
Y24082D01*
X37400Y17100D02*
Y24082D01*
X42200Y13118D02*
Y17100D01*
X37400Y13118D02*
Y17100D01*
Y13118D02*
X42200D01*
X49082Y2200D02*
Y7000D01*
X42000Y2200D02*
X49082D01*
X42100Y7000D02*
X49082D01*
X38118Y2200D02*
X42100D01*
X38118Y7000D02*
X42100D01*
X38118Y2200D02*
Y7000D01*
Y11800D01*
X45200D01*
X38118Y7000D02*
X45100D01*
Y11800D02*
X49082D01*
X45100Y7000D02*
X49082D01*
Y11800D01*
X-38128Y49569D02*
X-33328D01*
Y45587D02*
Y49569D01*
X-38128Y45587D02*
Y49569D01*
X-33328Y38605D02*
Y42587D01*
X-38128Y38605D02*
Y42587D01*
Y38605D02*
X-33328D01*
X-33228Y49549D02*
X-28428D01*
Y45567D02*
Y49549D01*
X-33228Y45567D02*
Y49549D01*
X-28428Y38585D02*
Y42567D01*
X-33228Y38585D02*
Y42567D01*
Y38585D02*
X-28428D01*
X-10797Y49470D02*
Y54270D01*
X-6815D01*
X-10797Y49470D02*
X-6815D01*
X-3815Y54270D02*
X167D01*
X-3815Y49470D02*
X167D01*
Y54270D01*
X-4723Y38518D02*
X77D01*
X-4723D02*
Y45600D01*
X77Y38518D02*
Y45500D01*
X-4723D02*
Y49482D01*
X77Y45500D02*
Y49482D01*
X-4723D02*
X77D01*
X-4700Y27618D02*
X100D01*
X-4700D02*
Y34700D01*
X100Y27618D02*
Y34600D01*
X-4700D02*
Y38582D01*
X100Y34600D02*
Y38582D01*
X-4700D02*
X100D01*
X-24157Y-10941D02*
Y-6941D01*
Y-2941D02*
Y1059D01*
X-38382Y-24000D02*
Y-19200D01*
X-34400D01*
X-38382Y-24000D02*
X-34400D01*
Y-19200D02*
X-27418D01*
X-34500Y-24000D02*
X-27418D01*
Y-19200D01*
X31100Y43441D02*
X35900D01*
Y36359D02*
Y43441D01*
X31100Y36459D02*
Y43441D01*
X35900Y32477D02*
Y36459D01*
X31100Y32477D02*
Y36459D01*
Y32477D02*
X35900D01*
X-24800Y9418D02*
X-20000D01*
X-24800D02*
Y13400D01*
X-20000Y9418D02*
Y13400D01*
X-24800Y16400D02*
Y20382D01*
X-20000Y16400D02*
Y20382D01*
X-24800D02*
X-20000D01*
X-66500Y-17018D02*
X-61700D01*
Y-21000D02*
Y-17018D01*
X-66500Y-21000D02*
Y-17018D01*
X-61700Y-27982D02*
Y-24000D01*
X-66500Y-27982D02*
Y-24000D01*
Y-27982D02*
X-61700D01*
X-55982Y-56241D02*
Y-51441D01*
X-52000D01*
X-55982Y-56241D02*
X-52000D01*
X-49000Y-51441D02*
X-45018D01*
X-49000Y-56241D02*
X-45018D01*
Y-51441D01*
X-27418Y-28800D02*
Y-24000D01*
X-31400Y-28800D02*
X-27418D01*
X-31400Y-24000D02*
X-27418D01*
X-38382Y-28800D02*
X-34400D01*
X-38382Y-24000D02*
X-34400D01*
X-38382Y-28800D02*
Y-24000D01*
X20600Y-10118D02*
X25400D01*
Y-14100D02*
Y-10118D01*
X20600Y-14100D02*
Y-10118D01*
X25400Y-21082D02*
Y-17100D01*
X20600Y-21082D02*
Y-17100D01*
Y-21082D02*
X25400D01*
X-9700Y33982D02*
X-4900D01*
Y30000D02*
Y33982D01*
X-9700Y30000D02*
Y33982D01*
X-4900Y23018D02*
Y27000D01*
X-9700Y23018D02*
Y27000D01*
Y23018D02*
X-4900D01*
X-50423Y-11947D02*
Y-7147D01*
X-54406Y-11947D02*
X-50423D01*
X-54406Y-7147D02*
X-50423D01*
X-61388Y-11947D02*
X-57406D01*
X-61388Y-7147D02*
X-57406D01*
X-61388Y-11947D02*
Y-7147D01*
X-50423Y-5347D02*
Y-546D01*
X-57506Y-5347D02*
X-50423D01*
X-57406Y-546D02*
X-50423D01*
X-61388Y-5347D02*
X-57406D01*
X-61388Y-546D02*
X-57406D01*
X-61388Y-5347D02*
Y-546D01*
X-3418Y-21900D02*
Y-17100D01*
X-7400Y-21900D02*
X-3418D01*
X-7400Y-17100D02*
X-3418D01*
X-14382Y-21900D02*
X-10400D01*
X-14382Y-17100D02*
X-10400D01*
X-14382Y-21900D02*
Y-17100D01*
X-53382Y-73200D02*
Y-68400D01*
X-46300D01*
X-53382Y-73200D02*
X-46400D01*
Y-68400D02*
X-42418D01*
X-46400Y-73200D02*
X-42418D01*
Y-68400D01*
Y-63600D01*
X-49500Y-68400D02*
X-42418D01*
X-49400Y-63600D02*
X-42418D01*
X-53382Y-68400D02*
X-49400D01*
X-53382Y-63600D02*
X-49400D01*
X-53382Y-68400D02*
Y-63600D01*
X-26578Y-21888D02*
X24603D01*
X-26578Y-73069D02*
Y-21888D01*
X-38291Y-73069D02*
X-26480D01*
X-26578D02*
X12792D01*
X-32300Y-61382D02*
X-27500D01*
X-32300D02*
Y-54300D01*
X-27500Y-61382D02*
Y-54400D01*
X-32300D02*
Y-50418D01*
X-27500Y-54400D02*
Y-50418D01*
X-32300D02*
X-27500D01*
D18*
X25200Y20150D02*
Y20500D01*
Y21300D02*
Y21650D01*
X24700Y20700D02*
Y21100D01*
X25700Y20700D02*
Y21100D01*
X24700Y21300D02*
X25700D01*
X24700Y20500D02*
X25700D01*
X24700Y20700D02*
X25700D01*
X24700Y21100D02*
X25700D01*
X-26480Y-73069D02*
X1375D01*
X-38291Y-68050D02*
X-26480D01*
D106*
X-22047Y30020D02*
G03*
X-22047Y31988I0J984D01*
G01*
Y28051D02*
G03*
X-22047Y30020I0J984D01*
G01*
Y26083D02*
G03*
X-22047Y28051I0J984D01*
G01*
Y24083D02*
Y26083D01*
Y31988D02*
Y33988D01*
X23887Y2625D02*
X32487D01*
X23887D02*
Y9625D01*
X32487D01*
Y2625D02*
Y9625D01*
D107*
X-12598Y16142D02*
G03*
X-12598Y16142I-591J0D01*
G01*
D108*
X23231Y17750D02*
Y24050D01*
X27168Y17750D02*
Y24050D01*
X23231D02*
X27168D01*
X23231Y17750D02*
X27168D01*
D109*
X12792Y-73069D02*
X24603Y-41573D01*
Y-21888D01*
D110*
X-16193Y53898D02*
Y52113D01*
X-15449Y53452D02*
X-16936Y52559D01*
Y53452D02*
X-15449Y52559D01*
M02*
