G04*
G04 #@! TF.GenerationSoftware,Altium Limited,Altium Designer,19.0.4 (130)*
G04*
G04 Layer_Color=2752767*
%FSLAX25Y25*%
%MOIN*%
G70*
G01*
G75*
%ADD10C,0.00100*%
%ADD11C,0.01000*%
%ADD12C,0.00300*%
%ADD13C,0.00200*%
%ADD14C,0.00267*%
D10*
X-19704Y53543D02*
G03*
X-17304Y53543I1200J0D01*
G01*
X-12303Y37205D02*
Y53543D01*
X-24705D02*
X-12303D01*
X-24705Y37205D02*
Y53543D01*
Y37205D02*
X-12303D01*
X-24705Y50689D02*
Y51870D01*
Y50689D02*
Y51870D01*
Y48720D02*
Y49902D01*
Y48720D02*
Y49902D01*
Y46752D02*
Y47933D01*
Y46752D02*
Y47933D01*
Y44783D02*
Y45965D01*
Y44783D02*
Y45965D01*
Y42815D02*
Y43996D01*
Y42815D02*
Y43996D01*
Y40846D02*
Y42028D01*
Y40846D02*
Y42028D01*
Y38878D02*
Y40059D01*
Y38878D02*
Y40059D01*
X-12303Y38878D02*
Y40059D01*
Y38878D02*
Y40059D01*
Y40846D02*
Y42028D01*
Y40846D02*
Y42028D01*
Y42815D02*
Y43996D01*
Y42815D02*
Y43996D01*
Y44783D02*
Y45965D01*
Y44783D02*
Y45965D01*
Y46752D02*
Y47933D01*
Y46752D02*
Y47933D01*
Y48720D02*
Y49902D01*
Y48720D02*
Y49902D01*
Y50689D02*
Y51870D01*
Y50689D02*
Y51870D01*
D11*
X54197Y74803D02*
G03*
X50197Y78740I-3937J0D01*
G01*
Y-95472D02*
G03*
X54134Y-91535I0J3937D01*
G01*
X-74817D02*
G03*
X-70866Y-95472I3937J0D01*
G01*
X-70866Y78734D02*
G03*
X-74803Y74803I-6J-3931D01*
G01*
X-70860Y78740D02*
X50260D01*
X54134Y-91535D02*
Y74867D01*
X-70866Y-95472D02*
X50197D01*
X-74803Y-91535D02*
Y74797D01*
D12*
X-16198Y53898D02*
Y52113D01*
X-15454Y53452D02*
X-16942Y52559D01*
Y53452D02*
X-15454Y52559D01*
D13*
X-20854Y47674D02*
Y49274D01*
X-19254D01*
Y47674D01*
X-20854D01*
Y44574D02*
Y46174D01*
X-19254D01*
Y44574D01*
X-20854D01*
Y41474D02*
Y43074D01*
X-19254D01*
Y41474D01*
X-20854D01*
X-17754Y47674D02*
Y49274D01*
X-16154D01*
Y47674D01*
X-17754D01*
Y44574D02*
Y46174D01*
X-16154D01*
Y44574D01*
X-17754D01*
Y41474D02*
Y43074D01*
X-16154D01*
Y41474D01*
X-17754D01*
X-52300Y14100D02*
X-53100Y15700D01*
X-51500D01*
X-52300Y14100D01*
X-62300D02*
X-63100Y15700D01*
X-61500D01*
X-62300Y14100D01*
X-57283Y-25898D02*
X-56883Y-25498D01*
X-56483D01*
X-56883Y-25098D01*
X-56483Y-24698D01*
X-56883D01*
X-57283Y-24298D01*
X-57683Y-24698D01*
X-58083D01*
X-57683Y-25098D01*
X-58083Y-25498D01*
X-57683D01*
X-57283Y-25898D01*
X-47414Y-2080D02*
X-47014Y-1280D01*
X-47414Y-480D01*
X-46614Y-880D01*
X-45814Y-480D01*
X-46214Y-1280D01*
X-45814Y-2080D01*
X-46614Y-1680D01*
X-47414Y-2080D01*
Y-21174D02*
X-47014Y-20374D01*
X-47414Y-19574D01*
X-46614Y-19974D01*
X-45814Y-19574D01*
X-46214Y-20374D01*
X-45814Y-21174D01*
X-46614Y-20774D01*
X-47414Y-21174D01*
X-57283Y2645D02*
X-56883Y3045D01*
X-56483D01*
X-56883Y3445D01*
X-56483Y3845D01*
X-56883D01*
X-57283Y4245D01*
X-57683Y3845D01*
X-58083D01*
X-57683Y3445D01*
X-58083Y3045D01*
X-57683D01*
X-57283Y2645D01*
X-15659Y12381D02*
Y11981D01*
X-14859D01*
Y12381D01*
X-14459D01*
Y13181D01*
X-14859D01*
Y13581D01*
X-15659D01*
Y13181D01*
X-16059D01*
Y12381D01*
X-15659D01*
X-17723Y-5813D02*
Y-6213D01*
X-16923D01*
Y-5813D01*
X-16523D01*
Y-5013D01*
X-16923D01*
Y-4613D01*
X-17723D01*
Y-5013D01*
X-18123D01*
Y-5813D01*
X-17723D01*
X-17132Y-18636D02*
Y-19036D01*
X-16332D01*
Y-18636D01*
X-15932D01*
Y-17836D01*
X-16332D01*
Y-17436D01*
X-17132D01*
Y-17836D01*
X-17532D01*
Y-18636D01*
X-17132D01*
X-36522Y25683D02*
Y25283D01*
X-35722D01*
Y25683D01*
X-35322D01*
Y26483D01*
X-35722D01*
Y26883D01*
X-36522D01*
Y26483D01*
X-36922D01*
Y25683D01*
X-36522D01*
X20139Y25475D02*
Y25074D01*
X20939D01*
Y25475D01*
X21339D01*
Y26274D01*
X20939D01*
Y26675D01*
X20139D01*
Y26274D01*
X19739D01*
Y25475D01*
X20139D01*
X15447Y-16148D02*
Y-16548D01*
X16247D01*
Y-16148D01*
X16646D01*
Y-15348D01*
X16247D01*
Y-14948D01*
X15447D01*
Y-15348D01*
X15046D01*
Y-16148D01*
X15447D01*
X-34532Y-35341D02*
Y-35741D01*
X-33732D01*
Y-35341D01*
X-33332D01*
Y-34541D01*
X-33732D01*
Y-34141D01*
X-34532D01*
Y-34541D01*
X-34932D01*
Y-35341D01*
X-34532D01*
X-58980Y-8600D02*
Y-9000D01*
X-58180D01*
Y-8600D01*
X-57780D01*
Y-7800D01*
X-58180D01*
Y-7400D01*
X-58980D01*
Y-7800D01*
X-59380D01*
Y-8600D01*
X-58980D01*
X-59300Y-3692D02*
X-58900D01*
X-58500Y-3292D01*
X-58100Y-3692D01*
X-57700D01*
Y-3292D01*
X-58100Y-2892D01*
X-57700Y-2492D01*
Y-2092D01*
X-58100D01*
X-58500Y-2492D01*
X-58900Y-2092D01*
X-59300D01*
Y-2492D01*
X-58900Y-2892D01*
X-59300Y-3292D01*
Y-3692D01*
X-46700Y4600D02*
X-46300D01*
X-45900Y5000D01*
X-45500Y4600D01*
X-45100D01*
Y5000D01*
X-45500Y5400D01*
X-45100Y5800D01*
Y6200D01*
X-45500D01*
X-45900Y5800D01*
X-46300Y6200D01*
X-46700D01*
Y5800D01*
X-46300Y5400D01*
X-46700Y5000D01*
Y4600D01*
X-63786Y-1000D02*
Y-1400D01*
X-62986D01*
Y-1000D01*
X-62586D01*
Y-200D01*
X-62986D01*
Y200D01*
X-63786D01*
Y-200D01*
X-64186D01*
Y-1000D01*
X-63786D01*
X-63900Y-9750D02*
Y-10150D01*
X-63100D01*
Y-9750D01*
X-62700D01*
Y-8950D01*
X-63100D01*
Y-8550D01*
X-63900D01*
Y-8950D01*
X-64300D01*
Y-9750D01*
X-63900D01*
X-45023Y-16318D02*
Y-16718D01*
X-44223D01*
Y-16318D01*
X-43823D01*
Y-15518D01*
X-44223D01*
Y-15118D01*
X-45023D01*
Y-15518D01*
X-45423D01*
Y-16318D01*
X-45023D01*
X-16200Y-11300D02*
Y-11700D01*
X-15400D01*
Y-11300D01*
X-15000D01*
Y-10500D01*
X-15400D01*
Y-10100D01*
X-16200D01*
Y-10500D01*
X-16600D01*
Y-11300D01*
X-16200D01*
X-39000Y43200D02*
Y42800D01*
X-38200D01*
Y43200D01*
X-37800D01*
Y44000D01*
X-38200D01*
Y44400D01*
X-39000D01*
Y44000D01*
X-39400D01*
Y43200D01*
X-39000D01*
X-3550Y26568D02*
Y26169D01*
X-2750D01*
Y26568D01*
X-2350D01*
Y27369D01*
X-2750D01*
Y27768D01*
X-3550D01*
Y27369D01*
X-3950D01*
Y26568D01*
X-3550D01*
X9119Y-38700D02*
Y-39100D01*
X9919D01*
Y-38700D01*
X10319D01*
Y-37900D01*
X9919D01*
Y-37500D01*
X9119D01*
Y-37900D01*
X8719D01*
Y-38700D01*
X9119D01*
X45663Y-71955D02*
Y-72355D01*
X46463D01*
Y-71955D01*
X46863D01*
Y-71155D01*
X46463D01*
Y-70755D01*
X45663D01*
Y-71155D01*
X45263D01*
Y-71955D01*
X45663D01*
X-66345Y-7800D02*
Y-8200D01*
X-65545D01*
Y-7800D01*
X-65145D01*
Y-7000D01*
X-65545D01*
Y-6600D01*
X-66345D01*
Y-7000D01*
X-66745D01*
Y-7800D01*
X-66345D01*
X36871Y7100D02*
Y6700D01*
X37671D01*
Y7100D01*
X38071D01*
Y7900D01*
X37671D01*
Y8300D01*
X36871D01*
Y7900D01*
X36471D01*
Y7100D01*
X36871D01*
X23954Y-16050D02*
Y-16450D01*
X24754D01*
Y-16050D01*
X25153D01*
Y-15250D01*
X24754D01*
Y-14850D01*
X23954D01*
Y-15250D01*
X23553D01*
Y-16050D01*
X23954D01*
X40899Y-38532D02*
Y-38932D01*
X41699D01*
Y-38532D01*
X42099D01*
Y-37732D01*
X41699D01*
Y-37332D01*
X40899D01*
Y-37732D01*
X40499D01*
Y-38532D01*
X40899D01*
X-39770Y-20817D02*
Y-21216D01*
X-38970D01*
Y-20817D01*
X-38570D01*
Y-20017D01*
X-38970D01*
Y-19616D01*
X-39770D01*
Y-20017D01*
X-40170D01*
Y-20817D01*
X-39770D01*
X-64081Y4915D02*
Y4515D01*
X-63281D01*
Y4915D01*
X-62881D01*
Y5715D01*
X-63281D01*
Y6115D01*
X-64081D01*
Y5715D01*
X-64481D01*
Y4915D01*
X-64081D01*
X36214Y-9554D02*
Y-9954D01*
X37014D01*
Y-9554D01*
X37414D01*
Y-8754D01*
X37014D01*
Y-8354D01*
X36214D01*
Y-8754D01*
X35814D01*
Y-9554D01*
X36214D01*
X31785Y23400D02*
Y23000D01*
X32585D01*
Y23400D01*
X32985D01*
Y24200D01*
X32585D01*
Y24600D01*
X31785D01*
Y24200D01*
X31385D01*
Y23400D01*
X31785D01*
X40545Y25584D02*
Y25184D01*
X41345D01*
Y25584D01*
X41745D01*
Y26384D01*
X41345D01*
Y26784D01*
X40545D01*
Y26384D01*
X40145D01*
Y25584D01*
X40545D01*
X-60538Y31159D02*
Y30759D01*
X-59738D01*
Y31159D01*
X-59338D01*
Y31959D01*
X-59738D01*
Y32359D01*
X-60538D01*
Y31959D01*
X-60938D01*
Y31159D01*
X-60538D01*
X-64376Y38970D02*
Y38570D01*
X-63576D01*
Y38970D01*
X-63176D01*
Y39770D01*
X-63576D01*
Y40170D01*
X-64376D01*
Y39770D01*
X-64776D01*
Y38970D01*
X-64376D01*
X39500Y42907D02*
Y42507D01*
X40300D01*
Y42907D01*
X40700D01*
Y43707D01*
X40300D01*
Y44107D01*
X39500D01*
Y43707D01*
X39100D01*
Y42907D01*
X39500D01*
X42347Y33184D02*
Y32784D01*
X43147D01*
Y33184D01*
X43547D01*
Y33984D01*
X43147D01*
Y34384D01*
X42347D01*
Y33984D01*
X41947D01*
Y33184D01*
X42347D01*
X16138Y13500D02*
Y13100D01*
X16938D01*
Y13500D01*
X17338D01*
Y14300D01*
X16938D01*
Y14700D01*
X16138D01*
Y14300D01*
X15738D01*
Y13500D01*
X16138D01*
X7051Y20500D02*
Y20100D01*
X7851D01*
Y20500D01*
X8251D01*
Y21300D01*
X7851D01*
Y21700D01*
X7051D01*
Y21300D01*
X6651D01*
Y20500D01*
X7051D01*
X40951Y-22600D02*
Y-23000D01*
X41751D01*
Y-22600D01*
X42151D01*
Y-21800D01*
X41751D01*
Y-21400D01*
X40951D01*
Y-21800D01*
X40551D01*
Y-22600D01*
X40951D01*
X33580Y-17168D02*
Y-17569D01*
X34380D01*
Y-17168D01*
X34780D01*
Y-16368D01*
X34380D01*
Y-15969D01*
X33580D01*
Y-16368D01*
X33180D01*
Y-17168D01*
X33580D01*
X48059Y-27200D02*
Y-27600D01*
X48859D01*
Y-27200D01*
X49259D01*
Y-26400D01*
X48859D01*
Y-26000D01*
X48059D01*
Y-26400D01*
X47659D01*
Y-27200D01*
X48059D01*
X-64376Y44200D02*
Y43800D01*
X-63576D01*
Y44200D01*
X-63176D01*
Y45000D01*
X-63576D01*
Y45400D01*
X-64376D01*
Y45000D01*
X-64776D01*
Y44200D01*
X-64376D01*
X-59455D02*
Y43800D01*
X-58655D01*
Y44200D01*
X-58255D01*
Y45000D01*
X-58655D01*
Y45400D01*
X-59455D01*
Y45000D01*
X-59855D01*
Y44200D01*
X-59455D01*
X-65321Y19400D02*
Y19000D01*
X-64521D01*
Y19400D01*
X-64121D01*
Y20200D01*
X-64521D01*
Y20600D01*
X-65321D01*
Y20200D01*
X-65721D01*
Y19400D01*
X-65321D01*
X-65361Y27400D02*
Y27000D01*
X-64561D01*
Y27400D01*
X-64161D01*
Y28200D01*
X-64561D01*
Y28600D01*
X-65361D01*
Y28200D01*
X-65761D01*
Y27400D01*
X-65361D01*
X-30241Y-26800D02*
Y-27200D01*
X-29441D01*
Y-26800D01*
X-29041D01*
Y-26000D01*
X-29441D01*
Y-25600D01*
X-30241D01*
Y-26000D01*
X-30641D01*
Y-26800D01*
X-30241D01*
X-1900Y-31600D02*
Y-32000D01*
X-1100D01*
Y-31600D01*
X-700D01*
Y-30800D01*
X-1100D01*
Y-30400D01*
X-1900D01*
Y-30800D01*
X-2300D01*
Y-31600D01*
X-1900D01*
X-22700Y-17900D02*
Y-18300D01*
X-21900D01*
Y-17900D01*
X-21500D01*
Y-17100D01*
X-21900D01*
Y-16700D01*
X-22700D01*
Y-17100D01*
X-23100D01*
Y-17900D01*
X-22700D01*
X-18500Y-15700D02*
Y-16100D01*
X-17700D01*
Y-15700D01*
X-17300D01*
Y-14900D01*
X-17700D01*
Y-14500D01*
X-18500D01*
Y-14900D01*
X-18900D01*
Y-15700D01*
X-18500D01*
X13380Y8458D02*
Y8058D01*
X14180D01*
Y8458D01*
X14580D01*
Y9258D01*
X14180D01*
Y9658D01*
X13380D01*
Y9258D01*
X12980D01*
Y8458D01*
X13380D01*
X-51392Y-66592D02*
Y-66992D01*
X-50592D01*
Y-66592D01*
X-50192D01*
Y-65792D01*
X-50592D01*
Y-65392D01*
X-51392D01*
Y-65792D01*
X-51792D01*
Y-66592D01*
X-51392D01*
X-51359Y-71200D02*
Y-71600D01*
X-50559D01*
Y-71200D01*
X-50159D01*
Y-70400D01*
X-50559D01*
Y-70000D01*
X-51359D01*
Y-70400D01*
X-51759D01*
Y-71200D01*
X-51359D01*
X-58000Y-45900D02*
Y-46300D01*
X-57200D01*
Y-45900D01*
X-56800D01*
Y-45100D01*
X-57200D01*
Y-44700D01*
X-58000D01*
Y-45100D01*
X-58400D01*
Y-45900D01*
X-58000D01*
X-57859Y-49900D02*
Y-50300D01*
X-57059D01*
Y-49900D01*
X-56659D01*
Y-49100D01*
X-57059D01*
Y-48700D01*
X-57859D01*
Y-49100D01*
X-58259D01*
Y-49900D01*
X-57859D01*
X-39300Y-26300D02*
Y-26700D01*
X-38500D01*
Y-26300D01*
X-38100D01*
Y-25500D01*
X-38500D01*
Y-25100D01*
X-39300D01*
Y-25500D01*
X-39700D01*
Y-26300D01*
X-39300D01*
X-42500Y-28941D02*
Y-29341D01*
X-41700D01*
Y-28941D01*
X-41300D01*
Y-28141D01*
X-41700D01*
Y-27741D01*
X-42500D01*
Y-28141D01*
X-42900D01*
Y-28941D01*
X-42500D01*
X-9300Y-20000D02*
Y-20400D01*
X-8500D01*
Y-20000D01*
X-8100D01*
Y-19200D01*
X-8500D01*
Y-18800D01*
X-9300D01*
Y-19200D01*
X-9700D01*
Y-20000D01*
X-9300D01*
X-7300Y-16385D02*
Y-16785D01*
X-6500D01*
Y-16385D01*
X-6100D01*
Y-15585D01*
X-6500D01*
Y-15185D01*
X-7300D01*
Y-15585D01*
X-7700D01*
Y-16385D01*
X-7300D01*
X47009Y-41594D02*
Y-41994D01*
X47809D01*
Y-41594D01*
X48209D01*
Y-40794D01*
X47809D01*
Y-40394D01*
X47009D01*
Y-40794D01*
X46609D01*
Y-41594D01*
X47009D01*
Y-35689D02*
Y-36089D01*
X47809D01*
Y-35689D01*
X48209D01*
Y-34889D01*
X47809D01*
Y-34489D01*
X47009D01*
Y-34889D01*
X46609D01*
Y-35689D01*
X47009D01*
X-51089Y35230D02*
Y34830D01*
X-50289D01*
Y35230D01*
X-49889D01*
Y36030D01*
X-50289D01*
Y36430D01*
X-51089D01*
Y36030D01*
X-51489D01*
Y35230D01*
X-51089D01*
X-40012Y20600D02*
X-39612D01*
X-39212Y21000D01*
X-38812Y20600D01*
X-38412D01*
Y21000D01*
X-38812Y21400D01*
X-38412Y21800D01*
Y22200D01*
X-38812D01*
X-39212Y21800D01*
X-39612Y22200D01*
X-40012D01*
Y21800D01*
X-39612Y21400D01*
X-40012Y21000D01*
Y20600D01*
X-42500Y21839D02*
X-42100D01*
X-41700Y22239D01*
X-41300Y21839D01*
X-40900D01*
Y22239D01*
X-41300Y22639D01*
X-40900Y23039D01*
Y23439D01*
X-41300D01*
X-41700Y23039D01*
X-42100Y23439D01*
X-42500D01*
Y23039D01*
X-42100Y22639D01*
X-42500Y22239D01*
Y21839D01*
X-43846Y25100D02*
X-43446D01*
X-43046Y25500D01*
X-42646Y25100D01*
X-42246D01*
Y25500D01*
X-42646Y25900D01*
X-42246Y26300D01*
Y26700D01*
X-42646D01*
X-43046Y26300D01*
X-43446Y26700D01*
X-43846D01*
Y26300D01*
X-43446Y25900D01*
X-43846Y25500D01*
Y25100D01*
X-46600Y25541D02*
X-46200D01*
X-45800Y25941D01*
X-45400Y25541D01*
X-45000D01*
Y25941D01*
X-45400Y26341D01*
X-45000Y26741D01*
Y27141D01*
X-45400D01*
X-45800Y26741D01*
X-46200Y27141D01*
X-46600D01*
Y26741D01*
X-46200Y26341D01*
X-46600Y25941D01*
Y25541D01*
X-48818Y6200D02*
X-48418D01*
X-48018Y6600D01*
X-47618Y6200D01*
X-47218D01*
Y6600D01*
X-47618Y7000D01*
X-47218Y7400D01*
Y7800D01*
X-47618D01*
X-48018Y7400D01*
X-48418Y7800D01*
X-48818D01*
Y7400D01*
X-48418Y7000D01*
X-48818Y6600D01*
Y6200D01*
X49100Y40400D02*
Y40000D01*
X49900D01*
Y40400D01*
X50300D01*
Y41200D01*
X49900D01*
Y41600D01*
X49100D01*
Y41200D01*
X48700D01*
Y40400D01*
X49100D01*
X45467Y4208D02*
Y3808D01*
X46267D01*
Y4208D01*
X46667D01*
Y5008D01*
X46267D01*
Y5408D01*
X45467D01*
Y5008D01*
X45067D01*
Y4208D01*
X45467D01*
Y9008D02*
Y8608D01*
X46267D01*
Y9008D01*
X46667D01*
Y9808D01*
X46267D01*
Y10208D01*
X45467D01*
Y9808D01*
X45067D01*
Y9008D01*
X45467D01*
X40200Y9100D02*
Y8700D01*
X41000D01*
Y9100D01*
X41400D01*
Y9900D01*
X41000D01*
Y10300D01*
X40200D01*
Y9900D01*
X39800D01*
Y9100D01*
X40200D01*
X34000Y-2700D02*
Y-3100D01*
X34800D01*
Y-2700D01*
X35200D01*
Y-1900D01*
X34800D01*
Y-1500D01*
X34000D01*
Y-1900D01*
X33600D01*
Y-2700D01*
X34000D01*
X43135Y-11435D02*
Y-11835D01*
X43935D01*
Y-11435D01*
X44335D01*
Y-10635D01*
X43935D01*
Y-10235D01*
X43135D01*
Y-10635D01*
X42735D01*
Y-11435D01*
X43135D01*
X38200Y-13907D02*
Y-14307D01*
X39000D01*
Y-13907D01*
X39400D01*
Y-13107D01*
X39000D01*
Y-12707D01*
X38200D01*
Y-13107D01*
X37800D01*
Y-13907D01*
X38200D01*
X45585Y35645D02*
Y35245D01*
X46385D01*
Y35645D01*
X46785D01*
Y36445D01*
X46385D01*
Y36845D01*
X45585D01*
Y36445D01*
X45185D01*
Y35645D01*
X45585D01*
X-31800Y2000D02*
Y1600D01*
X-31000D01*
Y2000D01*
X-30600D01*
Y2800D01*
X-31000D01*
Y3200D01*
X-31800D01*
Y2800D01*
X-32200D01*
Y2000D01*
X-31800D01*
X-61700Y27459D02*
Y27059D01*
X-60900D01*
Y27459D01*
X-60500D01*
Y28259D01*
X-60900D01*
Y28659D01*
X-61700D01*
Y28259D01*
X-62100D01*
Y27459D01*
X-61700D01*
X-51300Y29700D02*
Y29300D01*
X-50500D01*
Y29700D01*
X-50100D01*
Y30500D01*
X-50500D01*
Y30900D01*
X-51300D01*
Y30500D01*
X-51700D01*
Y29700D01*
X-51300D01*
X-56200Y26800D02*
Y26400D01*
X-55400D01*
Y26800D01*
X-55000D01*
Y27600D01*
X-55400D01*
Y28000D01*
X-56200D01*
Y27600D01*
X-56600D01*
Y26800D01*
X-56200D01*
X-67280Y21200D02*
Y20800D01*
X-66480D01*
Y21200D01*
X-66080D01*
Y22000D01*
X-66480D01*
Y22400D01*
X-67280D01*
Y22000D01*
X-67680D01*
Y21200D01*
X-67280D01*
X-4300Y-35500D02*
Y-35900D01*
X-3500D01*
Y-35500D01*
X-3100D01*
Y-34700D01*
X-3500D01*
Y-34300D01*
X-4300D01*
Y-34700D01*
X-4700D01*
Y-35500D01*
X-4300D01*
X-20400Y-19900D02*
Y-20300D01*
X-19600D01*
Y-19900D01*
X-19200D01*
Y-19100D01*
X-19600D01*
Y-18700D01*
X-20400D01*
Y-19100D01*
X-20800D01*
Y-19900D01*
X-20400D01*
X876Y-29200D02*
Y-29600D01*
X1676D01*
Y-29200D01*
X2076D01*
Y-28400D01*
X1676D01*
Y-28000D01*
X876D01*
Y-28400D01*
X476D01*
Y-29200D01*
X876D01*
X6350Y-31400D02*
Y-31800D01*
X7150D01*
Y-31400D01*
X7550D01*
Y-30600D01*
X7150D01*
Y-30200D01*
X6350D01*
Y-30600D01*
X5950D01*
Y-31400D01*
X6350D01*
X9200Y-28800D02*
Y-29200D01*
X10000D01*
Y-28800D01*
X10400D01*
Y-28000D01*
X10000D01*
Y-27600D01*
X9200D01*
Y-28000D01*
X8800D01*
Y-28800D01*
X9200D01*
X-36900Y3072D02*
Y2672D01*
X-36100D01*
Y3072D01*
X-35700D01*
Y3872D01*
X-36100D01*
Y4272D01*
X-36900D01*
Y3872D01*
X-37300D01*
Y3072D01*
X-36900D01*
X-12400Y-37800D02*
Y-38200D01*
X-11600D01*
Y-37800D01*
X-11200D01*
Y-37000D01*
X-11600D01*
Y-36600D01*
X-12400D01*
Y-37000D01*
X-12800D01*
Y-37800D01*
X-12400D01*
X31060Y-14800D02*
Y-15200D01*
X31859D01*
Y-14800D01*
X32260D01*
Y-14000D01*
X31859D01*
Y-13600D01*
X31060D01*
Y-14000D01*
X30659D01*
Y-14800D01*
X31060D01*
X-3400Y-16400D02*
Y-16800D01*
X-2600D01*
Y-16400D01*
X-2200D01*
Y-15600D01*
X-2600D01*
Y-15200D01*
X-3400D01*
Y-15600D01*
X-3800D01*
Y-16400D01*
X-3400D01*
X44900Y674D02*
Y274D01*
X45700D01*
Y674D01*
X46100D01*
Y1474D01*
X45700D01*
Y1874D01*
X44900D01*
Y1474D01*
X44500D01*
Y674D01*
X44900D01*
X-10200Y-43400D02*
Y-43800D01*
X-9400D01*
Y-43400D01*
X-9000D01*
Y-42600D01*
X-9400D01*
Y-42200D01*
X-10200D01*
Y-42600D01*
X-10600D01*
Y-43400D01*
X-10200D01*
X18400Y6500D02*
Y6100D01*
X19200D01*
Y6500D01*
X19600D01*
Y7300D01*
X19200D01*
Y7700D01*
X18400D01*
Y7300D01*
X18000D01*
Y6500D01*
X18400D01*
X17400Y2600D02*
Y2200D01*
X18200D01*
Y2600D01*
X18600D01*
Y3400D01*
X18200D01*
Y3800D01*
X17400D01*
Y3400D01*
X17000D01*
Y2600D01*
X17400D01*
X22743Y2616D02*
Y2216D01*
X23543D01*
Y2616D01*
X23943D01*
Y3416D01*
X23543D01*
Y3816D01*
X22743D01*
Y3416D01*
X22343D01*
Y2616D01*
X22743D01*
X21600Y500D02*
Y100D01*
X22400D01*
Y500D01*
X22800D01*
Y1300D01*
X22400D01*
Y1700D01*
X21600D01*
Y1300D01*
X21200D01*
Y500D01*
X21600D01*
X22400Y-5300D02*
Y-5700D01*
X23200D01*
Y-5300D01*
X23600D01*
Y-4500D01*
X23200D01*
Y-4100D01*
X22400D01*
Y-4500D01*
X22000D01*
Y-5300D01*
X22400D01*
X44300Y15000D02*
Y14600D01*
X45100D01*
Y15000D01*
X45500D01*
Y15800D01*
X45100D01*
Y16200D01*
X44300D01*
Y15800D01*
X43900D01*
Y15000D01*
X44300D01*
X12900Y19200D02*
Y18800D01*
X13700D01*
Y19200D01*
X14100D01*
Y20000D01*
X13700D01*
Y20400D01*
X12900D01*
Y20000D01*
X12500D01*
Y19200D01*
X12900D01*
X4490Y16100D02*
Y15700D01*
X5290D01*
Y16100D01*
X5690D01*
Y16900D01*
X5290D01*
Y17300D01*
X4490D01*
Y16900D01*
X4090D01*
Y16100D01*
X4490D01*
X8500Y12000D02*
Y11600D01*
X9300D01*
Y12000D01*
X9700D01*
Y12800D01*
X9300D01*
Y13200D01*
X8500D01*
Y12800D01*
X8100D01*
Y12000D01*
X8500D01*
X6490Y14200D02*
Y13800D01*
X7290D01*
Y14200D01*
X7690D01*
Y15000D01*
X7290D01*
Y15400D01*
X6490D01*
Y15000D01*
X6090D01*
Y14200D01*
X6490D01*
X3800Y33907D02*
Y33507D01*
X4600D01*
Y33907D01*
X5000D01*
Y34707D01*
X4600D01*
Y35107D01*
X3800D01*
Y34707D01*
X3400D01*
Y33907D01*
X3800D01*
X-14800Y4600D02*
Y4200D01*
X-14000D01*
Y4600D01*
X-13600D01*
Y5400D01*
X-14000D01*
Y5800D01*
X-14800D01*
Y5400D01*
X-15200D01*
Y4600D01*
X-14800D01*
X-12731Y6490D02*
Y6090D01*
X-11931D01*
Y6490D01*
X-11531D01*
Y7290D01*
X-11931D01*
Y7690D01*
X-12731D01*
Y7290D01*
X-13131D01*
Y6490D01*
X-12731D01*
X-11227Y-14180D02*
Y-14580D01*
X-10427D01*
Y-14180D01*
X-10027D01*
Y-13380D01*
X-10427D01*
Y-12980D01*
X-11227D01*
Y-13380D01*
X-11627D01*
Y-14180D01*
X-11227D01*
X27300Y37332D02*
Y36932D01*
X28100D01*
Y37332D01*
X28500D01*
Y38132D01*
X28100D01*
Y38532D01*
X27300D01*
Y38132D01*
X26900D01*
Y37332D01*
X27300D01*
X22600Y-12941D02*
Y-13341D01*
X23400D01*
Y-12941D01*
X23800D01*
Y-12141D01*
X23400D01*
Y-11741D01*
X22600D01*
Y-12141D01*
X22200D01*
Y-12941D01*
X22600D01*
X-8000Y28200D02*
Y27800D01*
X-7200D01*
Y28200D01*
X-6800D01*
Y29000D01*
X-7200D01*
Y29400D01*
X-8000D01*
Y29000D01*
X-8400D01*
Y28200D01*
X-8000D01*
X-17761Y8439D02*
Y8039D01*
X-16961D01*
Y8439D01*
X-16561D01*
Y9239D01*
X-16961D01*
Y9639D01*
X-17761D01*
Y9239D01*
X-18161D01*
Y8439D01*
X-17761D01*
X-13200Y18300D02*
Y17900D01*
X-12400D01*
Y18300D01*
X-12000D01*
Y19100D01*
X-12400D01*
Y19500D01*
X-13200D01*
Y19100D01*
X-13600D01*
Y18300D01*
X-13200D01*
X-1400Y-18300D02*
Y-18700D01*
X-600D01*
Y-18300D01*
X-200D01*
Y-17500D01*
X-600D01*
Y-17100D01*
X-1400D01*
Y-17500D01*
X-1800D01*
Y-18300D01*
X-1400D01*
X-22792Y11449D02*
Y11049D01*
X-21992D01*
Y11449D01*
X-21592D01*
Y12249D01*
X-21992D01*
Y12649D01*
X-22792D01*
Y12249D01*
X-23192D01*
Y11449D01*
X-22792D01*
X-17992Y18308D02*
Y17908D01*
X-17192D01*
Y18308D01*
X-16792D01*
Y19108D01*
X-17192D01*
Y19508D01*
X-17992D01*
Y19108D01*
X-18392D01*
Y18308D01*
X-17992D01*
X-20900Y-31600D02*
Y-32000D01*
X-20100D01*
Y-31600D01*
X-19700D01*
Y-30800D01*
X-20100D01*
Y-30400D01*
X-20900D01*
Y-30800D01*
X-21300D01*
Y-31600D01*
X-20900D01*
X-24600Y-23300D02*
Y-23700D01*
X-23800D01*
Y-23300D01*
X-23400D01*
Y-22500D01*
X-23800D01*
Y-22100D01*
X-24600D01*
Y-22500D01*
X-25000D01*
Y-23300D01*
X-24600D01*
X-9239Y18900D02*
Y18500D01*
X-8439D01*
Y18900D01*
X-8039D01*
Y19700D01*
X-8439D01*
Y20100D01*
X-9239D01*
Y19700D01*
X-9639D01*
Y18900D01*
X-9239D01*
X600Y17000D02*
Y16600D01*
X1400D01*
Y17000D01*
X1800D01*
Y17800D01*
X1400D01*
Y18200D01*
X600D01*
Y17800D01*
X200D01*
Y17000D01*
X600D01*
X33100Y29700D02*
Y29300D01*
X33900D01*
Y29700D01*
X34300D01*
Y30500D01*
X33900D01*
Y30900D01*
X33100D01*
Y30500D01*
X32700D01*
Y29700D01*
X33100D01*
D14*
X-60356Y-66246D02*
G03*
X-60356Y-66246I-800J0D01*
G01*
Y-59553D02*
G03*
X-60356Y-59553I-800J0D01*
G01*
X44423Y41754D02*
G03*
X44423Y41754I-800J0D01*
G01*
Y48447D02*
G03*
X44423Y48447I-800J0D01*
G01*
Y-7654D02*
G03*
X44423Y-7654I-800J0D01*
G01*
Y-14346D02*
G03*
X44423Y-14346I-800J0D01*
G01*
Y-65892D02*
G03*
X44423Y-65892I-800J0D01*
G01*
Y-59200D02*
G03*
X44423Y-59200I-800J0D01*
G01*
X-60356Y41353D02*
G03*
X-60356Y41353I-800J0D01*
G01*
Y48046D02*
G03*
X-60356Y48046I-800J0D01*
G01*
M02*
