G04*
G04 #@! TF.GenerationSoftware,Altium Limited,Altium Designer,19.0.4 (130)*
G04*
G04 Layer_Color=128*
%FSLAX25Y25*%
%MOIN*%
G70*
G01*
G75*
%ADD10C,0.00100*%
%ADD11C,0.01000*%
%ADD12C,0.00300*%
%ADD13C,0.00200*%
D10*
X-19704Y53543D02*
G03*
X-17304Y53543I1200J0D01*
G01*
X-12303Y37205D02*
Y53543D01*
X-24705D02*
X-12303D01*
X-24705Y37205D02*
Y53543D01*
Y37205D02*
X-12303D01*
X-24705Y50689D02*
Y51870D01*
Y50689D02*
Y51870D01*
Y48720D02*
Y49902D01*
Y48720D02*
Y49902D01*
Y46752D02*
Y47933D01*
Y46752D02*
Y47933D01*
Y44783D02*
Y45965D01*
Y44783D02*
Y45965D01*
Y42815D02*
Y43996D01*
Y42815D02*
Y43996D01*
Y40846D02*
Y42028D01*
Y40846D02*
Y42028D01*
Y38878D02*
Y40059D01*
Y38878D02*
Y40059D01*
X-12303Y38878D02*
Y40059D01*
Y38878D02*
Y40059D01*
Y40846D02*
Y42028D01*
Y40846D02*
Y42028D01*
Y42815D02*
Y43996D01*
Y42815D02*
Y43996D01*
Y44783D02*
Y45965D01*
Y44783D02*
Y45965D01*
Y46752D02*
Y47933D01*
Y46752D02*
Y47933D01*
Y48720D02*
Y49902D01*
Y48720D02*
Y49902D01*
Y50689D02*
Y51870D01*
Y50689D02*
Y51870D01*
D11*
X54197Y74803D02*
G03*
X50197Y78740I-3937J0D01*
G01*
Y-95472D02*
G03*
X54134Y-91535I0J3937D01*
G01*
X-74817D02*
G03*
X-70866Y-95472I3937J0D01*
G01*
X-70866Y78734D02*
G03*
X-74803Y74803I-6J-3931D01*
G01*
X-70860Y78740D02*
X50260D01*
X54134Y-91535D02*
Y74867D01*
X-70866Y-95472D02*
X50197D01*
X-74803Y-91535D02*
Y74797D01*
D12*
X-16198Y53898D02*
Y52113D01*
X-15454Y53452D02*
X-16942Y52559D01*
Y53452D02*
X-15454Y52559D01*
D13*
X-20554Y48474D02*
X-19554D01*
X-20054Y47974D02*
Y48974D01*
X-20554Y45374D02*
X-19554D01*
X-20054Y44874D02*
Y45874D01*
X-20554Y42274D02*
X-19554D01*
X-20054Y41774D02*
Y42774D01*
X-17454Y48474D02*
X-16454D01*
X-16954Y47974D02*
Y48974D01*
X-17454Y45374D02*
X-16454D01*
X-16954Y44874D02*
Y45874D01*
X-17454Y42274D02*
X-16454D01*
X-16954Y41774D02*
Y42774D01*
X-62731Y-66246D02*
X-59581D01*
X-61156Y-67821D02*
Y-64672D01*
X-62731Y-59553D02*
X-59581D01*
X-61156Y-61128D02*
Y-57979D01*
X42048Y41754D02*
X45198D01*
X43623Y40179D02*
Y43328D01*
X42048Y48447D02*
X45198D01*
X43623Y46872D02*
Y50021D01*
X42048Y-7654D02*
X45198D01*
X43623Y-9228D02*
Y-6079D01*
X42048Y-14346D02*
X45198D01*
X43623Y-15921D02*
Y-12772D01*
X42048Y-65892D02*
X45198D01*
X43623Y-67467D02*
Y-64318D01*
X42048Y-59200D02*
X45198D01*
X43623Y-60774D02*
Y-57625D01*
X-62731Y41353D02*
X-59581D01*
X-61156Y39779D02*
Y42928D01*
X-62731Y48046D02*
X-59581D01*
X-61156Y46472D02*
Y49621D01*
X-54072Y14900D02*
X-50528D01*
X-52300Y13128D02*
Y16672D01*
X-64072Y14900D02*
X-60528D01*
X-62300Y13128D02*
Y16672D01*
X-58268Y-25098D02*
X-56299D01*
X-57283Y-26083D02*
Y-24114D01*
X-47598Y-1280D02*
X-45630D01*
X-46614Y-2264D02*
Y-295D01*
X-47598Y-20374D02*
X-45630D01*
X-46614Y-21358D02*
Y-19390D01*
X-58268Y3445D02*
X-56299D01*
X-57283Y2461D02*
Y4429D01*
X-15659Y12781D02*
X-14859D01*
X-15259Y12381D02*
Y13181D01*
X-17723Y-5413D02*
X-16923D01*
X-17323Y-5813D02*
Y-5013D01*
X-17132Y-18236D02*
X-16332D01*
X-16732Y-18636D02*
Y-17836D01*
X-36522Y26083D02*
X-35722D01*
X-36122Y25683D02*
Y26483D01*
X20139Y25875D02*
X20939D01*
X20539Y25475D02*
Y26274D01*
X15447Y-15748D02*
X16247D01*
X15846Y-16148D02*
Y-15348D01*
X-34532Y-34941D02*
X-33732D01*
X-34132Y-35341D02*
Y-34541D01*
X-58980Y-8200D02*
X-58180D01*
X-58580Y-8600D02*
Y-7800D01*
X-59100Y-2892D02*
X-57900D01*
X-58500Y-3492D02*
Y-2292D01*
X-46500Y5400D02*
X-45300D01*
X-45900Y4800D02*
Y6000D01*
X-63786Y-600D02*
X-62986D01*
X-63386Y-1000D02*
Y-200D01*
X-63900Y-9350D02*
X-63100D01*
X-63500Y-9750D02*
Y-8950D01*
X-45023Y-15918D02*
X-44223D01*
X-44623Y-16318D02*
Y-15518D01*
X-16200Y-10900D02*
X-15400D01*
X-15800Y-11300D02*
Y-10500D01*
X-39000Y43600D02*
X-38200D01*
X-38600Y43200D02*
Y44000D01*
X-3550Y26969D02*
X-2750D01*
X-3150Y26568D02*
Y27369D01*
X9119Y-38300D02*
X9919D01*
X9519Y-38700D02*
Y-37900D01*
X45663Y-71555D02*
X46463D01*
X46063Y-71955D02*
Y-71155D01*
X-66345Y-7400D02*
X-65545D01*
X-65945Y-7800D02*
Y-7000D01*
X36871Y7500D02*
X37671D01*
X37271Y7100D02*
Y7900D01*
X23954Y-15650D02*
X24754D01*
X24353Y-16050D02*
Y-15250D01*
X40899Y-38131D02*
X41699D01*
X41299Y-38532D02*
Y-37732D01*
X-39770Y-20416D02*
X-38970D01*
X-39370Y-20817D02*
Y-20017D01*
X-64081Y5315D02*
X-63281D01*
X-63681Y4915D02*
Y5715D01*
X36214Y-9154D02*
X37014D01*
X36614Y-9554D02*
Y-8754D01*
X31785Y23800D02*
X32585D01*
X32185Y23400D02*
Y24200D01*
X40545Y25984D02*
X41345D01*
X40945Y25584D02*
Y26384D01*
X-60538Y31559D02*
X-59738D01*
X-60138Y31159D02*
Y31959D01*
X-64376Y39370D02*
X-63576D01*
X-63976Y38970D02*
Y39770D01*
X39500Y43307D02*
X40300D01*
X39900Y42907D02*
Y43707D01*
X42347Y33584D02*
X43147D01*
X42747Y33184D02*
Y33984D01*
X16138Y13900D02*
X16938D01*
X16538Y13500D02*
Y14300D01*
X7051Y20900D02*
X7851D01*
X7451Y20500D02*
Y21300D01*
X40951Y-22200D02*
X41751D01*
X41351Y-22600D02*
Y-21800D01*
X33580Y-16769D02*
X34380D01*
X33980Y-17168D02*
Y-16368D01*
X48059Y-26800D02*
X48859D01*
X48459Y-27200D02*
Y-26400D01*
X-64376Y44600D02*
X-63576D01*
X-63976Y44200D02*
Y45000D01*
X-59455Y44600D02*
X-58655D01*
X-59055Y44200D02*
Y45000D01*
X-65321Y19800D02*
X-64521D01*
X-64921Y19400D02*
Y20200D01*
X-65361Y27800D02*
X-64561D01*
X-64961Y27400D02*
Y28200D01*
X-30241Y-26400D02*
X-29441D01*
X-29841Y-26800D02*
Y-26000D01*
X-1900Y-31200D02*
X-1100D01*
X-1500Y-31600D02*
Y-30800D01*
X-22700Y-17500D02*
X-21900D01*
X-22300Y-17900D02*
Y-17100D01*
X-18500Y-15300D02*
X-17700D01*
X-18100Y-15700D02*
Y-14900D01*
X13380Y8858D02*
X14180D01*
X13780Y8458D02*
Y9258D01*
X-51392Y-66192D02*
X-50592D01*
X-50992Y-66592D02*
Y-65792D01*
X-51359Y-70800D02*
X-50559D01*
X-50959Y-71200D02*
Y-70400D01*
X-58000Y-45500D02*
X-57200D01*
X-57600Y-45900D02*
Y-45100D01*
X-57859Y-49500D02*
X-57059D01*
X-57459Y-49900D02*
Y-49100D01*
X-39300Y-25900D02*
X-38500D01*
X-38900Y-26300D02*
Y-25500D01*
X-42500Y-28541D02*
X-41700D01*
X-42100Y-28941D02*
Y-28141D01*
X-9300Y-19600D02*
X-8500D01*
X-8900Y-20000D02*
Y-19200D01*
X-7300Y-15985D02*
X-6500D01*
X-6900Y-16385D02*
Y-15585D01*
X47009Y-41194D02*
X47809D01*
X47409Y-41594D02*
Y-40794D01*
X47009Y-35289D02*
X47809D01*
X47409Y-35689D02*
Y-34889D01*
X-51089Y35630D02*
X-50289D01*
X-50689Y35230D02*
Y36030D01*
X-39812Y21400D02*
X-38612D01*
X-39212Y20800D02*
Y22000D01*
X-42300Y22639D02*
X-41100D01*
X-41700Y22039D02*
Y23239D01*
X-43646Y25900D02*
X-42446D01*
X-43046Y25300D02*
Y26500D01*
X-46400Y26341D02*
X-45200D01*
X-45800Y25741D02*
Y26941D01*
X-48618Y7000D02*
X-47418D01*
X-48018Y6400D02*
Y7600D01*
X49100Y40800D02*
X49900D01*
X49500Y40400D02*
Y41200D01*
X45467Y4608D02*
X46267D01*
X45867Y4208D02*
Y5008D01*
X45467Y9408D02*
X46267D01*
X45867Y9008D02*
Y9808D01*
X40200Y9500D02*
X41000D01*
X40600Y9100D02*
Y9900D01*
X34000Y-2300D02*
X34800D01*
X34400Y-2700D02*
Y-1900D01*
X43135Y-11035D02*
X43935D01*
X43535Y-11435D02*
Y-10635D01*
X38200Y-13507D02*
X39000D01*
X38600Y-13907D02*
Y-13107D01*
X45585Y36045D02*
X46385D01*
X45985Y35645D02*
Y36445D01*
X-31800Y2400D02*
X-31000D01*
X-31400Y2000D02*
Y2800D01*
X-61700Y27859D02*
X-60900D01*
X-61300Y27459D02*
Y28259D01*
X-51300Y30100D02*
X-50500D01*
X-50900Y29700D02*
Y30500D01*
X-56200Y27200D02*
X-55400D01*
X-55800Y26800D02*
Y27600D01*
X-67280Y21600D02*
X-66480D01*
X-66880Y21200D02*
Y22000D01*
X-4300Y-35100D02*
X-3500D01*
X-3900Y-35500D02*
Y-34700D01*
X-20400Y-19500D02*
X-19600D01*
X-20000Y-19900D02*
Y-19100D01*
X876Y-28800D02*
X1676D01*
X1276Y-29200D02*
Y-28400D01*
X6350Y-31000D02*
X7150D01*
X6750Y-31400D02*
Y-30600D01*
X9200Y-28400D02*
X10000D01*
X9600Y-28800D02*
Y-28000D01*
X-36900Y3472D02*
X-36100D01*
X-36500Y3072D02*
Y3872D01*
X-12400Y-37400D02*
X-11600D01*
X-12000Y-37800D02*
Y-37000D01*
X31060Y-14400D02*
X31859D01*
X31460Y-14800D02*
Y-14000D01*
X-3400Y-16000D02*
X-2600D01*
X-3000Y-16400D02*
Y-15600D01*
X44900Y1074D02*
X45700D01*
X45300Y674D02*
Y1474D01*
X-10200Y-43000D02*
X-9400D01*
X-9800Y-43400D02*
Y-42600D01*
X18400Y6900D02*
X19200D01*
X18800Y6500D02*
Y7300D01*
X17400Y3000D02*
X18200D01*
X17800Y2600D02*
Y3400D01*
X22743Y3016D02*
X23543D01*
X23143Y2616D02*
Y3416D01*
X21600Y900D02*
X22400D01*
X22000Y500D02*
Y1300D01*
X22400Y-4900D02*
X23200D01*
X22800Y-5300D02*
Y-4500D01*
X44300Y15400D02*
X45100D01*
X44700Y15000D02*
Y15800D01*
X12900Y19600D02*
X13700D01*
X13300Y19200D02*
Y20000D01*
X4490Y16500D02*
X5290D01*
X4890Y16100D02*
Y16900D01*
X8500Y12400D02*
X9300D01*
X8900Y12000D02*
Y12800D01*
X6490Y14600D02*
X7290D01*
X6890Y14200D02*
Y15000D01*
X3800Y34307D02*
X4600D01*
X4200Y33907D02*
Y34707D01*
X-14800Y5000D02*
X-14000D01*
X-14400Y4600D02*
Y5400D01*
X-12731Y6890D02*
X-11931D01*
X-12331Y6490D02*
Y7290D01*
X-11227Y-13780D02*
X-10427D01*
X-10827Y-14180D02*
Y-13380D01*
X27300Y37732D02*
X28100D01*
X27700Y37332D02*
Y38132D01*
X22600Y-12541D02*
X23400D01*
X23000Y-12941D02*
Y-12141D01*
X-8000Y28600D02*
X-7200D01*
X-7600Y28200D02*
Y29000D01*
X-17761Y8839D02*
X-16961D01*
X-17361Y8439D02*
Y9239D01*
X-13200Y18700D02*
X-12400D01*
X-12800Y18300D02*
Y19100D01*
X-1400Y-17900D02*
X-600D01*
X-1000Y-18300D02*
Y-17500D01*
X-22792Y11849D02*
X-21992D01*
X-22392Y11449D02*
Y12249D01*
X-17992Y18708D02*
X-17192D01*
X-17592Y18308D02*
Y19108D01*
X-20900Y-31200D02*
X-20100D01*
X-20500Y-31600D02*
Y-30800D01*
X-24600Y-22900D02*
X-23800D01*
X-24200Y-23300D02*
Y-22500D01*
X-9239Y19300D02*
X-8439D01*
X-8839Y18900D02*
Y19700D01*
X600Y17400D02*
X1400D01*
X1000Y17000D02*
Y17800D01*
X33100Y30100D02*
X33900D01*
X33500Y29700D02*
Y30500D01*
M02*
