G04*
G04 #@! TF.GenerationSoftware,Altium Limited,Altium Designer,19.0.4 (130)*
G04*
G04 Layer_Color=65535*
%FSLAX25Y25*%
%MOIN*%
G70*
G01*
G75*
%ADD10C,0.00394*%
%ADD11C,0.00984*%
%ADD12C,0.02400*%
%ADD13C,0.00787*%
%ADD14C,0.00700*%
%ADD15C,0.00600*%
%ADD16C,0.01000*%
%ADD17C,0.00800*%
%ADD18C,0.00158*%
%ADD19C,0.00500*%
D10*
X-59581Y-59553D02*
G03*
X-59581Y-59553I-1575J0D01*
G01*
Y-66246D02*
G03*
X-59581Y-66246I-1575J0D01*
G01*
X45198Y48447D02*
G03*
X45198Y48447I-1575J0D01*
G01*
Y41754D02*
G03*
X45198Y41754I-1575J0D01*
G01*
Y-14346D02*
G03*
X45198Y-14346I-1575J0D01*
G01*
Y-7654D02*
G03*
X45198Y-7654I-1575J0D01*
G01*
Y-59200D02*
G03*
X45198Y-59200I-1575J0D01*
G01*
Y-65892D02*
G03*
X45198Y-65892I-1575J0D01*
G01*
X-59581Y48046D02*
G03*
X-59581Y48046I-1575J0D01*
G01*
Y41353D02*
G03*
X-59581Y41353I-1575J0D01*
G01*
X-66668Y-66345D02*
Y-59455D01*
X-55743Y-67132D02*
Y-58766D01*
X-66668Y-66345D02*
X-64207D01*
X-66668Y-59455D02*
X-64207D01*
X-64109Y-69790D02*
Y-56010D01*
X-55743Y-53550D02*
Y-52565D01*
Y-73235D02*
Y-72250D01*
X-60172Y-73235D02*
X-55743D01*
X-60172Y-52565D02*
X-55743D01*
X38210Y34765D02*
X42639D01*
X38210Y55435D02*
X42639D01*
X38210Y54450D02*
Y55435D01*
Y34765D02*
Y35750D01*
X46576Y38210D02*
Y51990D01*
X46674Y41655D02*
X49135D01*
X46674Y48545D02*
X49135D01*
X38210Y40966D02*
Y49332D01*
X49135Y41655D02*
Y48545D01*
Y-14445D02*
Y-7555D01*
X38210Y-15134D02*
Y-6768D01*
X46674Y-7555D02*
X49135D01*
X46674Y-14445D02*
X49135D01*
X46576Y-17890D02*
Y-4110D01*
X38210Y-21335D02*
Y-20350D01*
Y-1650D02*
Y-665D01*
X42639D01*
X38210Y-21335D02*
X42639D01*
X38210Y-72881D02*
X42639D01*
X38210Y-52211D02*
X42639D01*
X38210Y-53196D02*
Y-52211D01*
Y-72881D02*
Y-71896D01*
X46576Y-69436D02*
Y-55656D01*
X46674Y-65991D02*
X49135D01*
X46674Y-59101D02*
X49135D01*
X38210Y-66680D02*
Y-58314D01*
X49135Y-65991D02*
Y-59101D01*
X-66668Y41255D02*
Y48145D01*
X-55743Y40468D02*
Y48834D01*
X-66668Y41255D02*
X-64207D01*
X-66668Y48145D02*
X-64207D01*
X-64109Y37810D02*
Y51590D01*
X-55743Y54050D02*
Y55035D01*
Y34365D02*
Y35350D01*
X-60172Y34365D02*
X-55743D01*
X-60172Y55035D02*
X-55743D01*
D11*
X-51207Y20200D02*
G03*
X-51207Y20200I-492J0D01*
G01*
X48192Y1201D02*
G03*
X48192Y1201I-492J0D01*
G01*
X46692Y15601D02*
G03*
X46692Y15601I-492J0D01*
G01*
D12*
X45145Y-44147D02*
G03*
X45145Y-44147I-492J0D01*
G01*
D02*
G03*
X45145Y-44147I-492J0D01*
G01*
D13*
X-51306Y25019D02*
Y28956D01*
X-48156D01*
X-39494Y25019D02*
Y28956D01*
X-42644D02*
X-39494D01*
X38982Y9833D02*
Y13443D01*
X38944Y13406D02*
X38982Y13443D01*
X38944Y13406D02*
X42881D01*
X38944Y1594D02*
Y4744D01*
Y1594D02*
X42881D01*
X37444Y24656D02*
Y27806D01*
X41381D01*
X37444Y15994D02*
Y19144D01*
Y15994D02*
X41381D01*
D14*
X-57000Y35800D02*
X-54500D01*
X-52800Y34100D01*
Y30900D02*
Y34100D01*
X-58800Y30900D02*
Y34000D01*
X-57000Y35800D01*
X-58800Y19200D02*
Y24400D01*
X-52800Y19200D02*
Y24400D01*
X-58800Y19200D02*
X-52800D01*
X-52400Y33000D02*
X-46400D01*
Y38200D01*
X-52400Y33000D02*
Y38200D01*
Y47800D02*
X-50600Y49600D01*
X-52400Y44700D02*
Y47800D01*
X-46400Y44700D02*
Y47900D01*
X-48100Y49600D02*
X-46400Y47900D01*
X-50600Y49600D02*
X-48100D01*
X-45400Y33000D02*
X-39400D01*
Y38200D01*
X-45400Y33000D02*
Y38200D01*
Y47800D02*
X-43600Y49600D01*
X-45400Y44700D02*
Y47800D01*
X-39400Y44700D02*
Y47900D01*
X-41100Y49600D02*
X-39400Y47900D01*
X-43600Y49600D02*
X-41100D01*
D15*
X-57500Y26600D02*
X-55900Y28200D01*
X-57800D02*
X-53800D01*
X-55700D02*
X-54000Y26600D01*
X-57500D02*
X-54000D01*
X-51100Y40400D02*
X-47600D01*
X-49300Y42000D02*
X-47600Y40400D01*
X-51400Y42000D02*
X-47400D01*
X-51100Y40400D02*
X-49500Y42000D01*
X-44100Y40400D02*
X-40600D01*
X-42300Y42000D02*
X-40600Y40400D01*
X-44400Y42000D02*
X-40400D01*
X-44100Y40400D02*
X-42500Y42000D01*
X-66783Y-24327D02*
Y2673D01*
X-67808Y-23327D02*
Y1673D01*
X-65783Y-26327D02*
X-62283D01*
X-65783D02*
Y4673D01*
X-62283D01*
X-67783D02*
X-66783Y5673D01*
X-67783Y4673D02*
X-66783Y3673D01*
Y2673D02*
Y3673D01*
X-67808Y1673D02*
X-66783Y2673D01*
Y5673D02*
X-65783Y4673D01*
X-66783Y-27327D02*
X-65783Y-26327D01*
X-67783D02*
X-66783Y-27327D01*
X-67783Y-26327D02*
X-66783Y-25327D01*
Y-24327D01*
X-67808Y-23327D02*
X-66783Y-24327D01*
X-52685Y-26327D02*
X-45283D01*
Y-23827D01*
Y1673D02*
Y4673D01*
X-52685D02*
X-45283D01*
X-49902Y-16831D02*
Y-4331D01*
D16*
X-56800Y27000D02*
X-55100Y26900D01*
X-55700Y27600D02*
X-55100Y26900D01*
X-56300Y27400D02*
X-55700Y27600D01*
X-49900Y41200D02*
X-49300Y41400D01*
X-48700Y40700D01*
X-50400Y40800D02*
X-48700Y40700D01*
X-42900Y41200D02*
X-42300Y41400D01*
X-41700Y40700D01*
X-43400Y40800D02*
X-41700Y40700D01*
D17*
X-63700Y19318D02*
X-58900D01*
Y26400D01*
X-63700Y19318D02*
Y26300D01*
X-58900D02*
Y30282D01*
X-63700Y26300D02*
Y30282D01*
X-58900D01*
X32576Y-73069D02*
Y48978D01*
X-36716Y47836D02*
X-36676Y47797D01*
X-38291Y48978D02*
X32576D01*
X-38291Y-73069D02*
X32576D01*
X-38291D02*
Y48978D01*
X22733Y-75038D02*
Y-73069D01*
X-28448Y-75038D02*
X22733D01*
X-28448D02*
Y-73069D01*
X-36716Y-62439D02*
Y47836D01*
X31001Y-62479D02*
Y47797D01*
X-36676D02*
X31001D01*
X-36676Y-62479D02*
X31001D01*
X-36716Y-62439D02*
X-36676Y-62479D01*
X-24700Y49826D02*
X-23700D01*
Y55426D01*
X-24700D02*
X-23700D01*
X-30100Y49826D02*
X-24800D01*
X-24700D02*
Y55226D01*
X-30100Y55426D02*
X-24700D01*
X-38900Y49826D02*
X-33500D01*
X-38900D02*
Y50026D01*
Y55426D01*
X-38800D01*
X-33500D01*
X-23700Y55374D02*
X-22700D01*
X-23700Y49774D02*
Y55374D01*
Y49774D02*
X-22700D01*
X-22600Y55374D02*
X-17300D01*
X-22700Y49974D02*
Y55374D01*
Y49774D02*
X-17300D01*
X-13900Y55374D02*
X-8500D01*
Y55174D02*
Y55374D01*
Y49774D02*
Y55174D01*
X-8600Y49774D02*
X-8500D01*
X-13900D02*
X-8600D01*
X12700Y49774D02*
X18000D01*
X18100D01*
Y55174D01*
Y55374D01*
X12700D02*
X18100D01*
X3900Y49774D02*
X9300D01*
X3900Y49974D02*
Y55374D01*
X4000D02*
X9300D01*
X2900Y49774D02*
X3900D01*
X2900D02*
Y55374D01*
X3900D01*
X-8182Y49800D02*
Y54600D01*
Y49800D02*
X-4200D01*
X-8182Y54600D02*
X-4200D01*
Y49800D02*
X2782D01*
X-4300Y54600D02*
X2782D01*
Y49800D02*
Y54600D01*
X18418Y49800D02*
Y54600D01*
Y49800D02*
X22400D01*
X18418Y54600D02*
X22400D01*
Y49800D02*
X29382D01*
X22300Y54600D02*
X29382D01*
Y49800D02*
Y54600D01*
X50882Y-29200D02*
Y-24400D01*
X46900D02*
X50882D01*
X46900Y-29200D02*
X50882D01*
X39918Y-24400D02*
X46900D01*
X39918Y-29200D02*
X47000D01*
X39918D02*
Y-24400D01*
X-38918Y50700D02*
Y55500D01*
X-42900D02*
X-38918D01*
X-42900Y50700D02*
X-38918D01*
X-49882Y55500D02*
X-42900D01*
X-49882Y50700D02*
X-42800D01*
X-49882D02*
Y55500D01*
X-48800Y-26118D02*
X-44000D01*
X-48800Y-30100D02*
Y-26118D01*
X-44000Y-30100D02*
Y-26118D01*
X-48800Y-37082D02*
Y-30100D01*
X-44000Y-37082D02*
Y-30000D01*
X-48800Y-37082D02*
X-44000D01*
X-44500Y-26118D02*
X-39700D01*
X-44500Y-30100D02*
Y-26118D01*
X-39700Y-30100D02*
Y-26118D01*
X-44500Y-37082D02*
Y-30100D01*
X-39700Y-37082D02*
Y-30000D01*
X-44500Y-37082D02*
X-39700D01*
X-48918Y-51900D02*
Y-47100D01*
X-52900D02*
X-48918D01*
X-52900Y-51900D02*
X-48918D01*
X-59882Y-47100D02*
X-52900D01*
X-59882Y-51900D02*
X-52800D01*
X-59882D02*
Y-47100D01*
X-24117Y-69920D02*
X-22784D01*
X-23451D01*
Y-65921D01*
X-24117Y-66587D01*
X-20785Y-69920D02*
Y-69253D01*
X-20119D01*
Y-69920D01*
X-20785D01*
X-17453D02*
X-16120D01*
X-16786D01*
Y-65921D01*
X-17453Y-66587D01*
X-12121Y-69920D02*
Y-65921D01*
X-14121Y-67920D01*
X-11455D01*
X-10122Y-65921D02*
X-8789D01*
X-9455D01*
Y-69920D01*
X-10122D01*
X-8789D01*
X-6790D02*
Y-65921D01*
X-4790D01*
X-4124Y-66587D01*
Y-67920D01*
X-4790Y-68587D01*
X-6790D01*
X-125Y-66587D02*
X-792Y-65921D01*
X-2124D01*
X-2791Y-66587D01*
Y-67254D01*
X-2124Y-67920D01*
X-792D01*
X-125Y-68587D01*
Y-69253D01*
X-792Y-69920D01*
X-2124D01*
X-2791Y-69253D01*
X1208Y-67920D02*
X3874D01*
X5207Y-65921D02*
Y-69920D01*
X7872D01*
X11871Y-66587D02*
X11205Y-65921D01*
X9872D01*
X9205Y-66587D01*
Y-69253D01*
X9872Y-69920D01*
X11205D01*
X11871Y-69253D01*
X13204Y-65921D02*
Y-69920D01*
X15203D01*
X15870Y-69253D01*
Y-66587D01*
X15203Y-65921D01*
X13204D01*
D18*
X-38291Y-73069D02*
X-22149D01*
D19*
X34318Y-33320D02*
X49082D01*
X34318Y-49068D02*
Y-33320D01*
Y-49068D02*
X49082D01*
Y-33320D01*
M02*
