G04*
G04 #@! TF.GenerationSoftware,Altium Limited,Altium Designer,19.0.4 (130)*
G04*
G04 Layer_Color=255*
%FSLAX25Y25*%
%MOIN*%
G70*
G01*
G75*
%ADD20R,0.03150X0.03543*%
%ADD21R,0.04724X0.02362*%
%ADD22R,0.01772X0.03937*%
%ADD23R,0.03150X0.03937*%
G04:AMPARAMS|DCode=24|XSize=39.37mil|YSize=31.5mil|CornerRadius=0mil|HoleSize=0mil|Usage=FLASHONLY|Rotation=90.000|XOffset=0mil|YOffset=0mil|HoleType=Round|Shape=Octagon|*
%AMOCTAGOND24*
4,1,8,0.00787,0.01968,-0.00787,0.01968,-0.01575,0.01181,-0.01575,-0.01181,-0.00787,-0.01968,0.00787,-0.01968,0.01575,-0.01181,0.01575,0.01181,0.00787,0.01968,0.0*
%
%ADD24OCTAGOND24*%

%ADD25R,0.03000X0.03000*%
%ADD26R,0.05000X0.03500*%
G04:AMPARAMS|DCode=27|XSize=50mil|YSize=35mil|CornerRadius=0mil|HoleSize=0mil|Usage=FLASHONLY|Rotation=0.000|XOffset=0mil|YOffset=0mil|HoleType=Round|Shape=Octagon|*
%AMOCTAGOND27*
4,1,8,0.02500,-0.00875,0.02500,0.00875,0.01625,0.01750,-0.01625,0.01750,-0.02500,0.00875,-0.02500,-0.00875,-0.01625,-0.01750,0.01625,-0.01750,0.02500,-0.00875,0.0*
%
%ADD27OCTAGOND27*%

%ADD28R,0.01968X0.02362*%
%ADD29R,0.02362X0.01968*%
%ADD30R,0.06299X0.01378*%
%ADD31R,0.03937X0.01772*%
%ADD32R,0.03000X0.03000*%
%ADD52C,0.02000*%
%ADD53R,0.06693X0.06693*%
%ADD54C,0.06693*%
%ADD55R,0.07874X0.05906*%
%ADD56R,0.05906X0.03150*%
D20*
X-55644Y-69593D02*
D03*
Y-56207D02*
D03*
X38111Y38407D02*
D03*
Y51793D02*
D03*
Y-4307D02*
D03*
Y-17693D02*
D03*
Y-69239D02*
D03*
Y-55853D02*
D03*
X-55644Y38007D02*
D03*
Y51393D02*
D03*
D21*
X-63518Y-71955D02*
D03*
Y-53845D02*
D03*
X45985Y36045D02*
D03*
Y54155D02*
D03*
Y-1945D02*
D03*
Y-20055D02*
D03*
Y-71601D02*
D03*
Y-53491D02*
D03*
X-63518Y35645D02*
D03*
Y53755D02*
D03*
D22*
X-49140Y21700D02*
D03*
X-41660D02*
D03*
X-45400Y30629D02*
D03*
D23*
X-55800Y21988D02*
D03*
X-49400Y35788D02*
D03*
X-42400D02*
D03*
D24*
X-55800Y33012D02*
D03*
X-49400Y46812D02*
D03*
X-42400D02*
D03*
D25*
X-61300Y21741D02*
D03*
Y27859D02*
D03*
X-46400Y-28541D02*
D03*
Y-34659D02*
D03*
X-42100Y-28541D02*
D03*
Y-34659D02*
D03*
D26*
X-35300Y52626D02*
D03*
X-12100Y52574D02*
D03*
X14500Y52574D02*
D03*
D27*
X-28300Y52626D02*
D03*
X-19100Y52574D02*
D03*
X7500Y52574D02*
D03*
D28*
X47409Y-47100D02*
D03*
Y-41194D02*
D03*
Y-35289D02*
D03*
X35991D02*
D03*
Y-41194D02*
D03*
Y-47100D02*
D03*
D29*
X41700D02*
D03*
D30*
X-45866Y-8268D02*
D03*
Y-10827D02*
D03*
Y-5709D02*
D03*
Y-15945D02*
D03*
Y-13386D02*
D03*
D31*
X37271Y7500D02*
D03*
X46200Y11240D02*
D03*
Y3760D02*
D03*
X35771Y21900D02*
D03*
X44700Y25640D02*
D03*
Y18160D02*
D03*
D32*
X-5759Y52200D02*
D03*
X359D02*
D03*
X20841D02*
D03*
X26959D02*
D03*
X48459Y-26800D02*
D03*
X42341D02*
D03*
X-41341Y53100D02*
D03*
X-47459D02*
D03*
X-51341Y-49500D02*
D03*
X-57459D02*
D03*
D52*
X-20054Y48474D02*
D03*
Y45374D02*
D03*
Y42274D02*
D03*
X-16954Y48474D02*
D03*
Y45374D02*
D03*
Y42274D02*
D03*
D53*
X-52300Y14900D02*
D03*
D54*
X-62300D02*
D03*
D55*
X-57283Y-25098D02*
D03*
Y3445D02*
D03*
D56*
X-46614Y-1280D02*
D03*
Y-20374D02*
D03*
M02*
